<?xml version="1.0" encoding="utf-8"?>
<!-- Generator: Adobe Illustrator 24.1.3, SVG Export Plug-In . SVG Version: 6.00 Build 0)  -->
<!DOCTYPE svg PUBLIC "-//W3C//DTD SVG 1.1//EN" "http://www.w3.org/Graphics/SVG/1.1/DTD/svg11.dtd" [
	<!ENTITY ns_extend "http://ns.adobe.com/Extensibility/1.0/">
	<!ENTITY ns_ai "http://ns.adobe.com/AdobeIllustrator/10.0/">
	<!ENTITY ns_graphs "http://ns.adobe.com/Graphs/1.0/">
	<!ENTITY ns_vars "http://ns.adobe.com/Variables/1.0/">
	<!ENTITY ns_imrep "http://ns.adobe.com/ImageReplacement/1.0/">
	<!ENTITY ns_sfw "http://ns.adobe.com/SaveForWeb/1.0/">
	<!ENTITY ns_custom "http://ns.adobe.com/GenericCustomNamespace/1.0/">
	<!ENTITY ns_adobe_xpath "http://ns.adobe.com/XPath/1.0/">
]>
<svg version="1.1" id="Layer_1" xmlns:x="&ns_extend;" xmlns:i="&ns_ai;" xmlns:graph="&ns_graphs;"
	 xmlns="http://www.w3.org/2000/svg" xmlns:xlink="http://www.w3.org/1999/xlink" x="0px" y="0px" viewBox="0 0 750 630.5"
	 style="enable-background:new 0 0 750 630.5;" xml:space="preserve">
<style type="text/css">
	.st0{fill:none;}
	.st1{fill:url(#SVGID_1_);}
	.st2{fill:#0D0808;}
	.st3{display:none;}
	.st4{display:inline;}
	.st5{fill:#141414;}
	.st6{fill:#FF0000;}
	.st7{display:inline;fill:none;}
	.st8{fill:#120B0B;}
	.st9{fill:#242424;}
	.st10{fill:#292929;}
	.st11{fill:#191919;}
	.st12{fill:#1C1C1C;}
	.st13{fill:#171717;}
	.st14{fill:#0F0F0F;}
	.st15{fill:#1A1A1A;}
	.st16{display:inline;fill:#242424;}
	.st17{display:inline;fill:#1C1C1C;}
	.st18{fill:#EBEBEB;}
	.st19{fill:#EDF4F4;}
	.st20{fill:#DBDBDB;}
	.st21{fill:#E3E3E3;}
	.st22{fill:#D6D6D6;}
	.st23{display:inline;fill:#0F0F0F;}
	.st24{fill:#E6E6E6;}
	.st25{fill:#E8E8E8;}
	.st26{fill:#F0F0F0;}
	.st27{fill:#E5E5E5;}
	.st28{fill:#1A1615;}
	.st29{fill:#0A0A0A;stroke:#000000;stroke-width:0.9994;stroke-miterlimit:9.9939;}
	.st30{fill:#FF008E;}
	.st31{display:inline;fill:#F5F5F5;stroke:#FFFFFF;stroke-width:0.9994;stroke-miterlimit:9.9939;}
	.st32{fill:#929493;}
	.st33{fill:#080808;stroke:#140C0C;stroke-width:1.9988;stroke-miterlimit:9.9939;}
	.st34{stroke:#120B0B;stroke-width:1.9988;stroke-miterlimit:9.9939;}
	.st35{fill:#0A0A0A;}
	.st36{fill:#0D0D0D;}
	.st37{display:inline;fill:#0D0808;}
	.st38{display:inline;fill:#080808;}
	.st39{display:inline;fill:#0D0D0D;}
	.st40{display:inline;fill:#1A1A1A;}
	.st41{fill:#152039;}
	.st42{fill:url(#SVGID_2_);}
	.st43{fill:url(#SVGID_3_);}
	.st44{fill:#111627;}
	.st45{fill:#1E2C47;}
	.st46{fill:#FFFFFF;}
</style>
<metadata><?xpacket begin="﻿" id="W5M0MpCehiHzreSzNTczkc9d"?>
<x:xmpmeta xmlns:x="adobe:ns:meta/" x:xmptk="Adobe XMP Core 6.0-c002 79.164360, 2020/02/13-01:07:22        ">
   <rdf:RDF xmlns:rdf="http://www.w3.org/1999/02/22-rdf-syntax-ns#">
      <rdf:Description rdf:about=""
            xmlns:xmp="http://ns.adobe.com/xap/1.0/"
            xmlns:xmpGImg="http://ns.adobe.com/xap/1.0/g/img/"
            xmlns:xmpTPg="http://ns.adobe.com/xap/1.0/t/pg/"
            xmlns:stDim="http://ns.adobe.com/xap/1.0/sType/Dimensions#"
            xmlns:xmpG="http://ns.adobe.com/xap/1.0/g/"
            xmlns:dc="http://purl.org/dc/elements/1.1/"
            xmlns:xmpMM="http://ns.adobe.com/xap/1.0/mm/"
            xmlns:stRef="http://ns.adobe.com/xap/1.0/sType/ResourceRef#"
            xmlns:stEvt="http://ns.adobe.com/xap/1.0/sType/ResourceEvent#">
         <xmp:CreatorTool>Adobe Illustrator 24.1 (Windows)</xmp:CreatorTool>
         <xmp:CreateDate>2020-06-03T00:06:35-04:00</xmp:CreateDate>
         <xmp:MetadataDate>2020-06-03T00:06:35-04:00</xmp:MetadataDate>
         <xmp:ModifyDate>2020-06-03T00:06:35-04:00</xmp:ModifyDate>
         <xmp:Thumbnails>
            <rdf:Alt>
               <rdf:li rdf:parseType="Resource">
                  <xmpGImg:width>256</xmpGImg:width>
                  <xmpGImg:height>216</xmpGImg:height>
                  <xmpGImg:format>JPEG</xmpGImg:format>
                  <xmpGImg:image>/9j/4AAQSkZJRgABAgEASABIAAD/7QAsUGhvdG9zaG9wIDMuMAA4QklNA+0AAAAAABAASAAAAAEA&#xA;AQBIAAAAAQAB/+4ADkFkb2JlAGTAAAAAAf/bAIQABgQEBAUEBgUFBgkGBQYJCwgGBggLDAoKCwoK&#xA;DBAMDAwMDAwQDA4PEA8ODBMTFBQTExwbGxscHx8fHx8fHx8fHwEHBwcNDA0YEBAYGhURFRofHx8f&#xA;Hx8fHx8fHx8fHx8fHx8fHx8fHx8fHx8fHx8fHx8fHx8fHx8fHx8fHx8fHx8f/8AAEQgA2AEAAwER&#xA;AAIRAQMRAf/EAaIAAAAHAQEBAQEAAAAAAAAAAAQFAwIGAQAHCAkKCwEAAgIDAQEBAQEAAAAAAAAA&#xA;AQACAwQFBgcICQoLEAACAQMDAgQCBgcDBAIGAnMBAgMRBAAFIRIxQVEGE2EicYEUMpGhBxWxQiPB&#xA;UtHhMxZi8CRygvElQzRTkqKyY3PCNUQnk6OzNhdUZHTD0uIIJoMJChgZhJRFRqS0VtNVKBry4/PE&#xA;1OT0ZXWFlaW1xdXl9WZ2hpamtsbW5vY3R1dnd4eXp7fH1+f3OEhYaHiImKi4yNjo+Ck5SVlpeYmZ&#xA;qbnJ2en5KjpKWmp6ipqqusra6voRAAICAQIDBQUEBQYECAMDbQEAAhEDBCESMUEFURNhIgZxgZEy&#xA;obHwFMHR4SNCFVJicvEzJDRDghaSUyWiY7LCB3PSNeJEgxdUkwgJChgZJjZFGidkdFU38qOzwygp&#xA;0+PzhJSktMTU5PRldYWVpbXF1eX1RlZmdoaWprbG1ub2R1dnd4eXp7fH1+f3OEhYaHiImKi4yNjo&#xA;+DlJWWl5iZmpucnZ6fkqOkpaanqKmqq6ytrq+v/aAAwDAQACEQMRAD8A9U4q7FXYq7FXYq7FXYqx&#xA;b8x/zE0LyH5dk1nVSZGLelZ2cZAlnlPRFr0A6s3YfQMVfHn5jfn7+YHnNWtpbr9F6SWJGnWJaNWH&#xA;QCWSvOT5E8a/s4q8zR2Rg6EqykFWBoQR0IOKvvr8hdd1PXfyk8valqczXF68U0Mk7kl3FvcywIWJ&#xA;3LcIxUnqcVZ9irsVdirsVdirsVdirsVdirsVYD+fGvaloP5S+YtS0yZre9SKKGOdDRkFzcR27spG&#xA;4YJKaEdDir4Fd2di7kszElmJqST1JOKvS/y5/Pz8wPJnG3hu/wBKaSGHLTr4tIqr3EUlecXtQ8a7&#xA;8Tir7D/Lf8xdC8++XU1jSiY3U+ne2UhBlglAqUanUHqrdx71AVZVirsVdirsVdirsVdirsVdirsV&#xA;dirsVdirsVfD3/ORPnyXzX+Yl5BFIW0rQ2ewsUB+EsjUnlHaryCle6quKvK5egxVTxV95f8AOOkS&#xA;Rfkx5aVOhjuHNfF7uZj+JxV6PirsVdirsVdirsVdirsVdirsVecf85FRJJ+THmVXFQIoGA6bpdRM&#xA;vT3GKvg3FVSLocVeqf8AOO/nyTyp+YlpDNJx0rWythfKTRQ0jUglPb4JD17KWxV9w4q7FXYq7FXY&#xA;q7FXYq7FXYq7FXYq7FXYqkPn3zD/AIc8la3rgIElhZzSwV6GbiREPpkKjFX52u7u7O7FnYlmZjUk&#xA;nckk4qpS9Biqnir71/5x5/8AJNeWf+MM3/UTLir0TFXYq7FXYq7FXYq7FXYq7FXYq87/AOchv/JN&#xA;eZv+MMP/AFExYq+CsVVIuhxVVVmVgykhgagjYgjFX6JeQfMI8x+StE1skNJf2cMs9Ogm4ASj6JAw&#xA;xVPsVdirsVdirsVdirsVdirsVdirsVdirx3/AJys1k2H5VPaK1G1W9t7UitCVTlcH6KwDFXxhiqy&#xA;XoMVUsVfev8Azjz/AOSa8s/8YZv+omXFXomKuxV2KuxV2KuxV2KuxV2KuxV53/zkN/5JrzN/xhh/&#xA;6iYsVfBWKqkXQ4qqYq+zv+cUtZN/+VSWbH4tKvri2ArvxfjcA/Ks5xV7HirsVdirsVdirsVdirsV&#xA;dirsVdirsVfNv/OZeolbPyvpwO0kl3cSL/xjWJEP/JRsVfMGKo+z8s+ZNTCfo3Sby99Q0T6tbyy8&#xA;iRWg4K1cVZHpv5G/m5qJUW/la+TlSn1lFtevj9YMVOvfFX2P+SXlfWfK35YaLoWtQi31OzFybiFX&#xA;WQL6t1LKo5IWU/BIOhxVnGKuxV2KuxV2KuxV2KuxV2KuxVhH51+Wdb8z/ljrWhaHEJtUvBb/AFeI&#xA;usQb07qKVxzcqo+BG6nFXxvqX5Gfm5pxYXHla+fj1+rKt1931dpa/RirHLzyz5k0wP8ApLSbyy9M&#xA;0f6zbyxcSBWh5qtMVQGKvp7/AJw01EtaeaNNY7RyWlzGPH1FlR+3/Fa4q+k8VdirsVdirsVdirsV&#xA;dirsVdirsVdiqQ+YvIfk7zJd293r2k2+pT2qlLc3ClwisakBSeO59sVSrVr78ovIMQmvxo3l8hfU&#xA;jiSKCGdlDUrFDEvqvv8AyKcVee69/wA5f/lxZNLFpFnqGsyJ/dypGtvbv/spWEo+mLFWMH/nNOSp&#xA;4+Szx7E6mAfu+qnFU98p/wDOYHlXUb8WvmTSJ9AhcgR3qS/XYQd/73jHDIg/1Ub3pir3fTtS07U7&#xA;GG/065ivLG4XnBdQOskbrWlVdSQd8VRGKuxV2KuxV2KuxV2KuxVD6jqWnaZYzX+o3MVnY26857qd&#xA;1jjRa0qzsQBvirwfzZ/zmF5U06/Nr5b0ifzBFGSJb15fqUJO391yjmdh/rKvtXFUjH/Oaclfi8lE&#xA;L3I1IE/d9VxVk+gf85gflxetFFrFnf6NK/8AeSvGtxAn+yib1T9EWKvQtJvvyi8/RGawGjeYCV9S&#xA;SJ4oJp1UtSssMq+qm/8AOoxVNfL3kPyd5cvJ7zQdJt9NuLpBHO1svphlU1AKg8evtiqfYq7FXYq7&#xA;FXYq7FXYq7FXYq7FXYq8/wDzI/PDyJ5DDW+o3RvdZpVNHs+MlwKgEGXcLEp5A/GakbqDir5o89f8&#xA;5O/mV5lL2+lSr5Z0xqgRWTFrog0+3dEKwI8YwmKvJJec873FxI9xcSsXlmlYu7MdyzE7kn3xVWjt&#xA;LhqcImp22oPxzNxdnZ5/TCX3fe2xwzPIL2sLtQSYzQeBBP4HLp9jaqIsw+0H9LI6bIOiHI7HNaRT&#xA;Qm3ljz15z8o3nqeV9XuNMeU854oyGgfiKAyQuHic70HJTgVmX/Qyf55f9TGn/SFY/wDVDFWv+hk/&#xA;zz/6mJP+kOx/6oYq4/8AOSn55/8AUwqf+jOx/wCqGKuH/OSf56k0HmAE+AsrH/qhikAnk4/85J/n&#xA;qDQ+YAD4Gysf+qGKkEc3D/nJT88/+phUf9Gdj/1QxQ7/AKGT/PP/AKmJP+kOx/6oYq3/ANDJ/nl/&#xA;1Maf9IVj/wBUMVYZ5o88+dPNt6JPNGsXGpFCZIInbjAhOzenCgSJD0rxUYqlQAAoNhiqIWwu2UMI&#xA;zQ+JA/Wc2ePsfUzFiHzIH3t400yLpZJZ3C7PESO+1R+GVZezdRDnCX3/AHMZYJjmFGIPBOlxbSPb&#xA;3ETB4pomKMrDcFSNwR7ZgkNT1vyL/wA5O/mV5aKW+qyL5m0xaAx3jFboAV+xdAM5J/4sD4q+lvy3&#xA;/PLyF58C2+nXRstZp8ej3vGO4JAJPpblZRsT8BqBuwGKvQcVdirsVdirsVdirsVdirsVY5+Y3mdf&#xA;K3kbW9e9RY5rK0ka1ZhyU3LjhbqR35SsoxV8Gafoeo65cy3lzeQxNcSNJcXd5MokkdzyZyCTIzMT&#xA;Wp6+ObLS9lZswsCo95cfUZ5YxtCcz/RiT9vJmOk+RfJ8HFrzUI7+XuvqpHH/AMCrcv8Ahs3WHsTF&#xA;D67kfkPx8XQartDWdMcsY/qm/tH6GX22j6JHbiO3s7cQHeixoQabV6b5tMeGER6QA6KWpzcVmUuL&#xA;3lC3flLQbmpNsImP7URKU+QHw/hlwkR1c7B27q8fKZP9bf790kvfy+O7WNzXwjmH/G6/805YMx6u&#xA;903taeWWHxj+o/rYfr/lXUrUGSW3ZHH7Y3RvbkKiuajtTs6OcccNsn+6/a7vHrtPqheOQ4+7kfl+&#xA;pisKMOTuCJHNSp6gDoPozjSCDRYqmBXYqjNJ06TUL6O2Q8Q27v8AyqOpyzFj45U7Hsns6Ws1EcQ2&#xA;vme4dfx3pzfrfeW50+qTRvBNUiNkXlt/NT4iPeuZOTiwnY7F6fXxz9i5B4M4yxz6GIv49a87dYLf&#xA;eZJ3+tzRpBDQmNUXlv8Ay1+ID3rjj4sx3OwXQRz9tZD404xxw6CIv4da87SbVtOk0++ktnPILuj/&#xA;AMynocxsuPglTzHa3Z0tHqJYjvXI946fjvQeVuudiqnOjFQyf3iHkvv4j6cVTvTtPCIs0q/vDuqn&#xA;9n+3Oy7I7JGMDJkHr6Du/b9zsNPh4dzzR/HOgcvidxxXiWSW0Mn20De5G/35Rm02PL9cRJjKMZcw&#xA;g5tHibeJih8DuP65pdR7PYpb4yYn5j9bjT0sTy2Qgt9QsLmK7hZop7d1lguYWKtG6EMrqy0ZSpFQ&#xA;c5/VdlZ8O5Fx7xu4k8Mov0C/LnzQvmnyNomveosk17axtdsgoBcoOFwoHakqsM1zUyPFXYq7FXYq&#xA;7FXYq7FUj86+cNI8oeW7zXtVcrbWqjjGv25ZGNEiQd2Zvu6nYHJQjxGlt8bfmN+c+v8Anm6pqJMW&#xA;lRSmWz0qOghjNOKsx6yOF/abxPEKDTOi0uXSYAKgZS7zX4DbDPjj0th36Wi/32fvGbH+XYfzS2fn&#xA;h3NjVoO6MPlQ5KPbmPrGX2JGuj3FXg1aBG5RytE3YioP3jL49qaefM/MLPNhyCpAH3i06sfNmrxf&#xA;3V56y9SshEn4n4vxzKgcWT6TfuLg5uxdHm5RAP8AR2+zl9if2PntTRb624+MkJqP+Bb+uE4iHR6r&#xA;2WkN8Ur8j+v+xkVpqWnX8Z+rypMpHxJ3p03U7/hlZHQvOajSZcEqnExP45Fh/njyNbz27ajpMIju&#xA;Y6tPbxjaRe5Vf5h4Dr880fanZomPEgPV18/2u47L7WkJcGU3E8iejzHOWerdirIPJk0MWozGQhf3&#xA;DEE+CkE/gMy9HICRvuev9jM0MepmZbfuz9hBP2b/AARunabJrl8+q3wP1TkRbwn9pVOw+Q7+Jy3H&#xA;j8WXHLk7Xs7s2XamoOrz/wBzfoj3gcvgOvebdqOmyaHfJqtiD9U5AXEI/ZVjuPke3gccmPwpcceS&#xA;9o9my7L1A1eD+5v1x7gefwPTuNIHznPDLqMJjIb9wpLDwYlh+ByrWSBkK7nVe2eeGTUwMTf7sfaS&#xA;R9m/xSDMR5B2KprpWn1pcSjbrEp/4l/TOo7E7M5Zpj+qP0/q+fc5eDH/ABFNuOdU5fE28TxuyOpV&#xA;1JVlYUII2IIOAG14kLeX9raAGZ6E9FG5zC1naOLT/Wd+4c2E8ojzQ9vrmnTvwDFCenMAD8CcxMHb&#xA;unySrePv/tLCOoiUx45uW7iZd+W/5eax5v1+0hhs5ZNIS4jGqXa/CkcNQZBzNBz4dAN8wNfroYIE&#xA;k+qth5sMmURDINL1v8xfyZ1+SwkgcaTPO0rWM4BtrpFPAyxOvL03ZafEp/l5A0pmCdHpdbDihQl3&#xA;jofMNRjCYsc31B5R806X5p8v2mt6axNvdL8UbfbjkU0eNx/Mrbe/UbEZyGowSwzMJcw4cokGinGU&#xA;sXYq7FXYq7FXYq+a/wDnK3zAdR1DTPKkExWGxBvr5VIYGaUFIVYdVaOPk3XcPm+7K7L8aBmTW9M4&#xA;4eIc3z/+g1/36f8Agf7c2v8AIQ/n/Z+1P5Qd7m0RFBZpqAbkkbAffgPYkQLM/s/av5Ud6Q32oWsL&#xA;lLdjKF6yH4Vr7eOc7qsmOEqxni8+TUcQHVLm1aauzUHso/jmJ40l4Q3Fq8wapavzFP1YRnkDa8IZ&#xA;Do+tLNIsUsxRz9lX+JW+TbEZ0XZfaZlIRnOj57g/HmHIxSPK2RRtJG4kjYo6mqspIIPsRnUEA82/&#xA;JCMxwyFjzZHpXnC5i4xX49aPp6y7OPmOjZTLFXJ5nX+zsZerDsf5p5fA/j4JP5v8oRXatrWhATRv&#xA;8VzbRjevUsi/rXrnMdp9lkk5MY94/U4+g18sR8HP6SORP6f0FgRBBoeuc49AujkaNuSmhoQfkwoR&#xA;t4g4QaZ48hgbH4vY/MbM10jzVpAtIoJSbZolCcSCyniKbFQfxzZ4dVCgDs+n9ke1WjGGOOf7owiB&#xA;yJG3cR+mnav5q0g2ksERNy0qlOIBVRyFNyw/Vjl1UKIG69r+1WjOGWOH70yBHIgb95P6LYVJI0jc&#xA;mNTQAfJRQDfwAzWE2+YZMhmbP4rYfIbLcDBM9M0ppiJp1pF1VT1b+zOg7J7IOQjJkHo6Dv8A2N2P&#xA;He5T3jnYuXbLPyzs/KNx5rsE8yXNxBF9Zh+rpDGjRO/MUWaRmDIhNAeKHbuMwe0JZRiPhgHY/gMJ&#xA;yNbIz83rPyhB5y1T9A3NzLO13OdQhliRYI5jITIsMgbkwD1FCn05X2XLKcMeMCqFd9ef9qMcjW7w&#xA;vUbiSe8ldz1Y0HgM4fVZjkySmeZLiTNlDAkGo65QxZroUzz6bGz7stVqfAdM7vsTMZ6cX/Ds5uKX&#xA;pZN5U1+68u+YtP1m2LFrKeOV41Yr6kasC8ZI7Ou2Z+pwDLjMD1DKW4pBanf3epahcX925kubqRpZ&#xA;XJJ+JzU9e2WY4CEREcgkGntn/OL3mv6vqWo+Vp3pFeL9dsgSAPWjASZQKVLPHxbrsEOc37RabaOU&#xA;e4/ocfOOr6MzlXHdirsVdirsVUL6+tLCxuL68kENpaRPPcTNWiRxqWdjTwUVwgWaV+fHm/zXqPmX&#xA;zPqeu3MjrJqFw8wjLk8IyaRxg+EaBVHsM2cMs4CokgNJme9KPrNx/v1/+COS/MZP50vmUcZ70v1P&#xA;UJwhg9ViCKyVJO3hmNqNVMjhMj822BPUpG7lz7dhmEyWYq7FVSKUqaE/D+rFLIrHUbiWLi0r802P&#xA;xHcZscWryEfVL5lrmSOqPttSuYG3YyIeqsa/ccz9N2llxHnxDuKwzSiyXRdbkif17OTi23qRN0I8&#xA;GGdJg1GPPG48/tXU6bFqY1IfrDL7EeXtYLSy2Fu131lWWKN3+fIjcZXk0uMn1RiT7g8lq8Go0p4e&#xA;KXB0IJpLte8macwa6sbWNWG8kCqACB3QAdfbIDRYL3hH5Od2X2twngy7jpLu97F/0ZY/74T/AIEZ&#xA;f/J+n/mR+T1dB36Msf8AfCf8CMf5O0/8yPyWh3O/Rlj/AL4T/gRj/J2n/mR+S0O5tdOslNRAlR0+&#xA;EYY6DADYhH5JoK/HMtPE7jivEoz3ltaENLMImG67/F8xTfMbUavFi+uQH47lMlw1OHUZ5ZxcCeeV&#xA;mklYn4mZjVmNd9ycGm1eHIKxyBrp+xAkGM655fuRcPcWyGSNzUqu5BPtnL9qdk5ITM4Digd9ujTO&#xA;G+yXWuiajcSBBCyiu7MKAfTmtwdn5ssqjE+87BiIlmVtbwWFkkbOFSMfE7bCpzuNPihpcIiTQHMl&#xA;yAaC2PVdNkfglwpbwNR+JyEO1NPI0Ji14wi+OZ6eJNfKuvXXl3zHp2t23L1LGdZSqniXTpJHXwdC&#xA;VPscx9XgGbFKB6j+xEtxT7is7u2vLSC8tZBLbXMazQSr0aORQysPmDnnEgQaLiquBXYq7FXYq8s/&#xA;5yK84QaF5GOmicRXmuyfVk+Li3oJR52G1CKcY2Hg+bPsmEDmEpkCMd9+/p+v4JBA5vlP6/Y/7/T7&#xA;xnZ/ncP8+PzZ+IO931+x/wB/p94x/O4f58fmviDveb6jO800srfalck/Sa557myGczI8ybYFBZWh&#xA;2KuxV2Kp35buvQ1O3djRGqj+FCCKn9ebDsvP4eoiTy5H4sgaZ19fsf8Af6feM7b87h/nx+bLxB3t&#xA;G/sQCfXQ07AjAddh/nD5r4gY5Dqnma8me902RokgJ4LERy2FenVjTORzdpajNIyiaHcPxu5OPsvL&#xA;q8cjGPFEcx+x6H5A82XWtWs9vf0F/ZkB2A481aoqV7EEUObrsrXSzxIl9UXh+1OzxglsKB6dxRHm&#xA;DRgC17brsd50Hb/LH8c3EJVt0c7sjtEisU/80/o/UkHHL3o7SvzDqcmn2YaKnrStxQnoNqk5qe19&#xA;dLT4xw/VJBkkb3HmiwUXdySYKiodkZTXtQGuc1DtDVYzxGRPv3Dm6jszU4Ycc41H3j9BZZbSrcW8&#xA;U67LKoYD5iudrgyjJATH8Qtw+J1w/owSS0r6as9P9UVw58nBCUv5oJ+S8Tzq8uprmd5ZWLMxrnnG&#xA;XLLJIykbJaiVttcS28yyxsVZTUEYMeSUJCUTRCgvRbOX6xaxTdDIoYj3pvnoulzeLijPvDbxK3HM&#xA;hbYX5pv5ZL9rcEiKHYL79znD9t6qWTMY/wAMGEikgJBqNjmnYM08q3sl1ZNHIeTQEAE/ymtB+Gdl&#xA;2BqpZMZhLfg+4/2NkZJ3xzfMrfVH/OPXmj9L+Rl02Z+V5okn1ZgSSxgerwMdtgByjA/yM4btvTeH&#xA;nJHKe/62uXN6fmoYuxV2KuxV8Y/85Oeb/wBO/mTNp8EnOx0GMWSBSSpnPx3DUPRg59Nv9TM3FGot&#xA;Mzu8jybBciF2oPpOFWPXkZRpEPVGIP0Gma+Qo05KEwK7FXYq7FUy01D9YjH8oJP3ZZiHqRPknGZj&#xA;jt4VQiR3ts7fVXHpyfaRgrL1BFVcFTQjrmN4conbk52n1s8V8J58xQI+RsMn8mp9Vaa6WWt8z8n9&#xA;hv8AeDXfOk7DwQEZEn1n7HGzgZwRPfi/FvTLK9jvLYSAbn4ZEO9D3Hyzd10Lx+o08sU+Esc1bTvq&#xA;lx8A/cSbx96eK/RlkJdHpOztZ4sKP1D8Wx/XtHOpWYjQhZozyjJ6V6EH55gdqaH8xjofUOTsLY8n&#xA;l7zBcuILhUihqOUlI+g8OIqc5vH2PqZy4ZDhHft+hyMmqnOPCSK9w/UzC3tkggjhT7EahV+QFM7P&#xA;DjGOAiOURTRbcsCyxPE32XUq3yIphyQE4mJ5EUvE861PSrqxuWjkQ8ang4GxHiM881WlngnwyH7U&#xA;LdP0y7vbhYokJqfiJ2AHicjp9NPNLhgLP3e9Xolvbpb20cQPwxKF5HboOuehYcYxYxHpEJtejRv9&#xA;hg1OtCD+rJxyRlyNrbEvNejTrcm9iUtE4+On7JHjnI9t6GUchygXGXPyKGOpBM7hFQliaAU75ogC&#xA;TQVnflvSZLGyPqik0pDMvgB0B+/O27G0UsGMmX1S/ATabcc3C8T0v8gPMv6H89xWUsnC01mM2jgm&#xA;iiYfHA1O7FgY1/180nbun48PEOcPu6ot9T5xauxV2Kpf5g1m30TQ7/V7ihisYJJyhYJzKKSqAnu5&#xA;oo9zlmLGZzERzJpXwrf6PFf31xfXk0s13dyvPcTM1WeSRizsSR1LGudr/I+HzadkLL5f0yKNpHaQ&#xA;KoqTyH9Mhk7LwQiZSJoeaNkp4xKSI1ohO1TU09856Rjew2YFI9atCkv1hR8Emz+x/tzBzw3tvxy2&#xA;SWSMqajdfHKGanirsVVYojXk3TsPHFLMPKnl4XMD3dzyVH+GEA0JA+0dx0zoeyOyxliZzuujXM9E&#xA;+/w1p/jJ/wAEP6ZuP5Hw/wBL5tdB3+GtP8ZP+CH9Mf5Hw/0vmtB3+GtP8ZP+CH9Mf5Hw/wBL5rQV&#xA;bXQ7W2mEsTSBh4kUIPY7Zbg7Nx4pcUTK0hOdOu2tLgP/ALrbaQe3j9GZsx1cTXafxYf0hyT69t0u&#xA;7Vo9qn4o27A9jlfudBp8pxTEgkFhZQ3F9HbXNzHYxs3GW5mEjJHTryESyP8AcMslMiNgX5f2vVRy&#xA;CQBHIvR/zG8ieWNK8s6Bd2OuWrzrY0WPjJW8rK8vqxlFenxSFfjoNhvtmo0GtyzyTEoGuL/S7VX2&#xA;dGZLy/jm6Y8TuOK8TTwo68XUMvgRUfjkZREhRFp4mkhjjXjGoRfBQAPwxhCMRQFLxMB8xa1cXd48&#xA;SOVt42IRQdjTvnC9p6+WfIRfoB2H6WwJZbXtzbSrLFIyuvQg5gY8koS4omir0bR736/p8VwQAzCj&#xA;jtyGd92fqvHwiZ59fewJpH2Ol/WLuOC0hT6zOwRAOKVY7AcjxH3nMjgxwuVAfBHE9F82fk3r+ieV&#xA;tL1X6uvrrFKdZX1oqRt6haKlXo9YzT4K9M1ul7Wx5MsoXtY4dj8ft70l5xxzbseJWtLm5s7uC7tX&#xA;MVzbSLNBKvVZI2DKw9wRXIZICcTE8iKTxPtfy/rNvreh2Gr29BFfQRzhAwfgXUFkJHdDVT7jPOMu&#xA;MwmYnmDTYmGVq7FXk3/ORuvtZ+VLTR4yQ+rT8pdgQYbXi7CvY+o0Z+jN52Dg4sxkf4B9p/Ba8hoP&#xA;nHjnYtNsb1bUPrMvpxn9wh2/yj4/0zlu0db4suGP0D7fNbQGa1CF1B1EBQ789qew3yM+TOHNI5LR&#xA;hvHuPDvmHLH3N4khmgAPxJQ/SMrIpK+3s5ZpAkELSSHoqgsf45KGOUzUQSfJWU6J5JuJHWfUh6cQ&#xA;3EAPxN/rEfZH45v9D2HKR4su0e7qf1fe1yyjoyTUta0nSIlSdwhAHp28Yq1BsKKOg+eb/U67DphU&#xA;j7gGsAlJv8bu/wAUOmu0R+w7yrGSPkRmol7Ri9obe/8AY2eGvi882quq31pJaqxorhhIv0kcfwyz&#xA;D7Q4yfXEx+39SDjLIrS6tbyETW0iyxHoyn8D4HN5hzQyR4oGw1mwrcctRbuOK2m+k3PKH0WPxR/Z&#xA;/wBX+zKSKNOk1uHhnY5FC6rbhZxKo+GTr/rD+uSgd6crs/N6eE9GJ+avzEnaO2sYHFwdPhNtDK32&#xA;I4/UeTiKfaPOVt857W9rxxSlHCLkTuel8tvxXvdvGF82C3mv6jcsfWuZJATUry4r9Cjb8M5/NrM2&#xA;T6pE/jubAAEPDqd1C3KKWSNv5lcg/hlUM04m4kj4qyHSPO17Cypdn61B0JO0ij59/pzb6TtzLjNT&#xA;9cft/HvYmALObO6try3S4t3DxP0I/UffOtwZ4ZYiUTYLQdnnGu6bNY6jLG6ngSWjbsVPQ5wWt00s&#xA;OUxPw9zkRNi0vRGdgqirHYAZiJel+XdOksdKiikFJWq7r4E9vuzvOytMcOACX1HcuPOVlM+ObJja&#xA;a6p5hv8AUdI0jS5z/o+jxyx2+5JPrSmRifoovyGY+PTxhOUhznX2BPElXHMhFu44rb6O/wCcctfa&#xA;88qXejyEl9Jn5RbAAQ3XJ1Fe59RZD9Ocb29g4cwkP4x9o/AbsZsPWc0bY7FXy9+emu/pXz9cwRsG&#xA;t9LjSzjKk0LLWSWtf2hJIUP+rnadh4ODBxdZG3Eyy3eVa7eehb+ihpJNt8l7/flvamq4IcI+qX3M&#xA;Y7sbzmGTTEKCx2A3JxSlE8xlkLnp0UeAymRttApTwJbBINQaH2xBQy+y16WG2jjlhEjqAHcGlT92&#xA;b/D2vKEQDG6aSHa55st7PS/Vt6fXJTwjibcqabsfYdsv1XbEY4eKH1nau7zTCFnyea3FxNcTNNM5&#xA;kkc1ZmNSSc5CczI2TZLlJy/RP+Maf8QGRVCaj/vOv+v/AAOKt6Frl3pN2JoTyiagmiP2WX+vgcy9&#xA;FrJ6efFHl1HexlGw9Zs7mC8tYrmA8opVDKfn2PuM73DmjkgJx5Fw5bGlbjlqOJUt5PRmWStANm/1&#xA;T1/rkJ8raNRHjgQln5ia2LHSFtoz/pV23GMjqqL9tvx4/Tmn7Z1fhYuEfVL7uv6mjs7CTPi6B5BL&#xA;IWag+yPx98413qnirsVbBKmo64qyfydrbWeoJE7f6LckI69lY7Bv8+2bbsjWnDlET9Etj+gsMkbD&#xA;0S6sLW6j9O4iWVewYdPkeozsc2nhlFTAIcQTI5Ie00LSrST1ILZVcdGNWI+XImmUYez8GI3GIv5/&#xA;ek5SUdxzNY8TuOK8TuOK8TuOK8TuOK8T0H8i9d/RXn62gkYLb6pG9nIWJoGakkVKftGSMIP9bNN2&#xA;5g48HF1ibbMUt31DnFuWh9Sv7fTtOutQuSRbWcMlxMVFTwiUu1B8hkoRMiAOZQTT4v1C9mu7u51C&#xA;7cNPcSSXFxJ0q7sXdvvOeiwiMcAOkR9zrTKywW/u2u7p5jsCaIPBR0zktVnOXIZN4FBD5jpS+9ug&#xA;37pPsj7R8T4ZXOXRsiEHkGbsVRFlFznBP2U+I/PtkoDdjI7JmSAKnYDqcta0guo0vLmWSUsI4woV&#xA;VoCS1ada9hmFmlZciAoKP6Psv+Lf+CX/AJpypkiXKkjiCAAFFevwgDFVKaFJkCPWgNdjT+BxVQOn&#xA;wU6v94/pirOfy6uWfT7mzY8vq0gKE9lkHT71Odb7P5iccofzT9/9jh6kUQWW8c37jW7jitvOPzBv&#xA;JJ9a9Nif9GgWMV8aFq/TXOK7bmTnr+aAHL0ePhj7yw/NQ5TsVdirsVV7ckA+xBGKXtGnyNPYW07f&#xA;aliR2+bKCc9G08zPHGR6xB+x1c9iQiOOXMbdxxW3ccVt3HFbdxxW3ccVtXsbu4sb23vbZuFzaypP&#xA;A/WkkbBlP0EZXlxicDE8iKSJUbfZ2m39vqOnWuoWxJtryGO4hLCh4SqHWo+RzzmcTEkHmHZg2wr8&#xA;79YbTvIF1EhZZdRljs0dTSgYmRwfZo4mX6c2PZGHj1Ef6O/y/a06iVQL5I8y36xwC0jb95J/eUO4&#xA;Udj886HtXU1HgB3PP3OHhje7Gc51yELfXBjTgp+NvwGRkaZxCW5U2OxVVtofWlCnZRux9sMRbEmk&#xA;1REReKAAeAy5rQ1/Nxj9MH4n6/LIzLKISoSRo8ySMFL8HSuwPGqkZhZObfHk16sP+/E/4Jf65BK7&#xA;FVrSIv2iB8yB+vFVpnhp9tf+CH9cVZj+WkDfV9Quf91yyIinxMYNf+JjOp9noERnLvIHy/tcHWS3&#xA;AZpxzo3Dt3HFbeY+frV4vMEjt9m4jRlPsF4H8Vziu28ZjqCf5wB/R+h2ellcGJEEEg9Rmob2sVdi&#xA;rsVRFuhI26saAYpe22Fs1vY21u32oYkjaniqgZ6NggYY4xPQAOmnOySr8cuY27jitu44rbuOK27j&#xA;ito3RdJm1XV7LTIDSW9mjgVqV4+owXkR4CtTlWbKMcDI9BbKO5pQvLKazvJ7SdeM9vI8Uq+DoxVh&#xA;94ycJiQBHIoOxp9K/khrDaj5AtYnLNLp0slm7sa1CkSIB7LHKq/RnEdr4eDUS/pb/P8Aa7LTyuAe&#xA;Xf8AOWHmmeC+0PQrZzG4glvLhh3EriOOnuPSff3yGiyyxgmO17IzAGgXzmSSSSak7knJk2wdgVKb&#xA;qT1J2I6DYfIZTI7tsRso4GTsVTDT1CQtIdqnr7LlkBs1yUZNQmJPCiiuxpU0+nAZpEUO7s7FmNWP&#xA;U5Alkhb23MsdV+2u49x4ZXONsolKcoZp0n2F/wBVf+IjFUHqPRf8/HFUPZ2lxeXMdtboZJpWCoo7&#xA;k5PHjlOQjEWSiUgBZe16Bo0ek6VBZLQsgrK4/adt2P8AAZ3ui0wwYhD5+90uXLxytMOOZbXxO44r&#xA;xMb86aA2qWatAtbu3VniHdhUVT+nvmo7W0XjwuP1x+3ycrS5uE78i8qmhNTtxcbMp26ZxZFO1UCC&#xA;DQihxVrFVSOItu2y/rxVl3kXy/Jf6it5KlLO0YNUjZpBuqj5dT/bm47H0Ry5OM/RH7T3OLqs3DGu&#xA;pen8c7N1XE7jivE7jivE7jivE7jivE7jivEyn8vvOF55a162lRo1sZpo1v8AlGjN6JYByrkc1opJ&#xA;2OYOv0cc2Mj+IDb3tuHNwy8kH5x816j5m1eW9u+HAO31ZVjRCsZPwqWUBm2/mJyek0scMBEfFGXM&#xA;Zmy9F/5x01MJf6xpTMSZoorqJf2R6TGOQ/M+qn3ZpPaHF9E/ePx9rl6GfMPIP+citYOpfmvqqrMZ&#xA;oLBILOHrRPTiVpEFfCZ3+nNRiFRDkTO7zXLGClcy+lCzftHZfmcBNBkBaUZS2uxV2KoueUJbRwKd&#xA;yoZ/au9PvycjtTADe0JkGbsVdiqHuLKKY8h8L+I7/PK5QBSJLo47slIwquxoqkNxr2FajIDESaCe&#xA;IJ5D+XvmS9dRcRx2cQ3LO4ckewSubPF2JnkdwIjzP6nFnrsY5bs38ueUNN0OMmIetdMKPcuBy+Sj&#xA;9kZ0ei7Ox6cbby7/ANXc67PqpZPIJ3xzYOPxO44rxMw/LnyDd+Z9WiMiD9ExMfrkokQMAFJACcuZ&#xA;q1BUDNd2jr44IGvr6OTpsJyHyY75p8var5dvhYalGqT8uiSJICtCQfgLUrTod8ytPqYZYiUeSBjM&#xA;ZUWB+YfJVvqztcWhW3vjuxP2JP8AWp0Pvmu7R7Ijm9UPTP7C5WPU+GKPJhN75R8xWrFZLCSQDflG&#xA;vqrT5ryzmsvZ2eB3gfhv9zmw1OOXIhDw+XtbkakenTk+IiYUr70yqOjzHlCXyLI5oDqPmybRfy3v&#xA;pnWXVXFvCDvChDSN9Iqq5ttJ2FORvJ6R3dXEy6+I+ncvQLSytrS3S3toxFDGKIi/59c6jFijjiIx&#xA;FAOrlkMjZ5q3HLGPE7jivE7jivE7jivE7jivE7jivE7jivE7jivEzb8nNQax/MDTh6vpw3YltpvB&#xA;g8ZZF+mVUzVdtY+LTk/zSD+j9Ll6KdZB5vF/PGpRap5z17Uoq+jeahdTxV3PCSZmXp7HObAoU7Ap&#xA;LhQl2oyVkEY6KKn5nK5lsgEJkGbsVdirbMzMWY1J6nElDWKXYq7FXYq7FXrHljUf0jotvOxrKo9K&#xA;b/XTap+Yoc7PQZ/FxA9eRdBqYcEyE145ltHE7jivE7jivEmPl7WrvQ9ZttVtP7+2YlQTQEMpVh9I&#xA;Y5TqMAywMDyLPHlMJAhJtQ5MquzEtz5MTuSSD3+nLgG3TG5H3KVkwMxXvxJ+4jJFt1O0fijeORcL&#xA;idxxXidxxXidxxXidxxXidxxXiV1sblrOS9EZNrFIkLy9hJIrMq/SI2yPGOLh68/x8071fRQ45JH&#xA;E7jivE7jivE7jivE7jivEmXlq6jsfMelXstRFa3lvNJTY8Y5VZuvsMxtZDiwzH9EtuCdTB83i6XY&#xA;nmm8eRINa1B7/fnIcVku74aC6WRY4y57dB4nCTSgJOzFmLHck1OUNrWKXYq7FXYq7FW1VmYKoJYm&#xA;gA3JJxQ9j8h/84u/mB5kijvdV4eXdOkoVa7UvdMprutsCpFKdJGTrUVyBmAkAvR4v+cM9AEaibzL&#xA;dPJ+0yW8aKfkpZqffkfFHcnhK/8A6E08t/8AUx3n/ImL+uPijuXhTry//wA4uaNosc0cWvXU0cxD&#xA;cXijFCBSooe+Zul7UngBEQN+9xs+jjkIJKbf9C+6V/1d5/8AkUn9cy/5fy/zY/a0fyXDvLv+hfdK&#xA;/wCrvP8A8ik/rj/L+X+bH7V/kuHeXf8AQvulf9Xef/kUn9cf5fy/zY/av8lw7y7/AKF90r/q7z/8&#xA;ik/rj/L+X+bH7V/kuHeUNe/845afccDHrc0ZWteUCsDWng6+GI7fyXfDH7W3FoYw5ErLP/nG+wgm&#xA;MkmuSyfCVAWBV6kHu7eGE+0GQ/wx+1ll0YmKJRn/AEL7pX/V3n/5FJ/XB/L+X+bH7Wj+S4d5d/0L&#xA;7pX/AFd5/wDkUn9cf5fy/wA2P2r/ACXDvK2X/nHzTzGRFrMqyfss0KsB8wGWv34jt/J/Nj9qnsuH&#xA;eWI+ZvyZ81aOj3FoF1azXq9uCJgBTdoDU9T+wW96ZstN23iyGpeg/Z83DzdnzjuPUGB8c3ANuvtv&#xA;jhW3pOn+afJ0f5d3lrJoKGQXUKSWn1iT97I8bFZ+f214iNhxG335o8mlznUg8f8ACd6G3l9rsYaj&#xA;H4JHD17/ALXm8nFnZlXgpJKoCTQHtU5uw64yW8cK27jitu44rbuOK24qaGhoex8MjIWKUSo28TtJ&#xA;BHOpJop2b6c4WJ3epkNl95c+q3Ff7tenufHGUrWIpDZFk7FXYq7FXYqmXl7y7rXmLWLfR9FtHvdR&#xA;um4xQxj72YnZVXqzMaAdcUPsr8oP+ce/LvkeOLUtTEereZ6Am7Zaw2zdSLZWHWv+7GHLw47jKJZL&#xA;2DMRetZWydirsVdirsVdirsVdirsVdirsVdirsVdirBfPn5V6V5iWS9seFjrNCfWApFMfCZVHX/L&#xA;Ar48qAZs9B2nPAaO8O79Tg6rQxyixtL8c3gmpaVf6Zey2N/A1tdwnjJE43B8QRsQeoI2I3GdhhzR&#xA;yxEomw85lhKEuGWxQvHLWu3ccVt3HFbdxxW3ccVt3HFbdxxW3jXmXSZtH8x6ppM9PW0+7ntZKdOU&#xA;MjIaf8DnBE29gOSW4pdirsVdirsVTjyp5U1zzXrltomiWxub65Ow6Kij7Ukjfsovc4EPuL8pvyi8&#xA;v/l5owhtVW51m4QfpHVGX45D14JX7EQPRe/U75ROdsxGmeZBk7FXYq7FXYq7FXYq7FXYq7FXYq7F&#xA;XYq7FXYq7FWNed/IumeabErKBDqMS0tL0D4l78X/AJkJ7fdmZotbPBKxy6hxdVpY5o0efQvnfWNF&#xA;1DR9Rl0/UIjDcwmjL1BHZlPdT2Odrp9RDLASidnlM2KWKXDLmg+OXNXE7jivE7jivE7jivE7jivE&#xA;r6fp76hf21hGQJLyaO3QnpylYIPxbKtRPgxyl3AtuAcU4jvISD/nKbyZJof5jvq8UXDT/MEYuY2V&#xA;SFFxGBHcLXuxPGQ/6+cNA2HsTsXjWSV2KuxV2Kpp5a8ta15l1q20XRbZrvULtuMUS9AP2mZuiqo3&#xA;ZjsBih9y/lB+Uukfl3oAtoyt1rV0A2p6jxoXbtHHXcRJ2HfqfAY852ziKZ7kGTsVdirsVdirsVdi&#xA;rsVdirsVdirsVdirsVdirsVdirsVYz568kWXmjTfTPGHUYKmzuiOh7o9N+Dfh19szdFrZYJ2OXUO&#xA;JrNJHNGjz6F89anpV9pl9NY30JguoG4yRt+BB6EEbgjrnaYM8csRKJ2LyGbFLHIxlzQ3HLmq3ccV&#xA;t3HFbdxxW2b/AJQ6C2o+bY7t05W2lqbiQkVX1GBWFfY8quP9XNN21qODFw9Zfc7bsfDx5eLpH73p&#xA;X5tflvZef/KFxo0pSG/jPr6XduDSK4UELypvwcHi/sa0qBnKQlRenkLfBGvaTqGgavdaPrERs9Rs&#xA;3Mdxby0DAjcH3VhupGxG4y+wxCA+sQf78X/ghg4gtO+sQf78X/ghjxBaTHy7omp+Y9ZtdF0SA3up&#xA;Xj8ILeMgk9yxNaKqjdmOwG52w2EF9x/k3+Tej/l1o/7F55ivEA1LUgNqbH0IKiqxKfpc/E37KrTO&#xA;d+5nGNPRcrZOxV2KuxV2KuxV2KuxV2KuxV2KuxV2KuxV2KuxV2KuxV2KuxVivnzyHZeaLIOnGDV7&#xA;dSLW6I2YdfSlpuUJ6Hqp3HcNnaHXSwS74nmHB12hjnj3SHIvAb/TrzT7yayvYWguoG4TQv1U9e2x&#xA;BG4I2I3G2dphzRyREomwXjc2OWORjIUQoccsardxxW1aysLu+u4rOziae6nYJDEm5Zj/AJ1JOwG5&#xA;yvLljjiZSNANmLHLJIRiLJfRXknypB5a0OOyBD3ch9W9mWpDSkUotafCo2XYePUnOH1mqOfIZH4e&#xA;57fR6UYcYiPj70/zFcpgH5sfkr5Q/MmwRdURrXVrZCljq8AHrRg1PBwdpI+Rrwb34lanCCgh8nec&#xA;v+cV/wAzvLkrvbWp12w5UjudNQyuQa05W9fWU0G9FKj+bJxgD1YmRHRIvKH5B/mL5p1L6lZaXcWq&#xA;I5S4vb6F7a3hK05B3cVLLXdVBb2wnGB1RxnufZn5Qfkt5Y/LXSmisf8ATNZulA1DV5VAkkpv6aDf&#xA;04gd+IO/Uk7ZWSzAeg4EuxV2KuxV2KuxV2KuxV2KuxV2KuxV2KuxV2KuxV2KuxV2KuxV2KuxVjfn&#xA;LyPpnma1Hqn6vfxClveqKsB14ONuSV7V27d8zNHrZ4JWOXUOFrdDDURo8+heKax5J8zaTdfV7qxk&#xA;fkwWOeBWlicmtArqOpp9k0b2zq8HaOHIL4gPI7PI6js7NilXCT5jdMNC/LHzZqrqXtGsLatHmuwY&#xA;iKEVpEf3hNDt8IB8cp1HbGGHI8R8v1t+n7Hz5OY4B5/qeueUPI2j+WYSbcGe/lULPeyAB2HUqg/Y&#xA;Su9B7VJoM5rV63JnNy5dz1Gj0OPAKjz72R5huY//2Q==</xmpGImg:image>
               </rdf:li>
            </rdf:Alt>
         </xmp:Thumbnails>
         <xmpTPg:MaxPageSize rdf:parseType="Resource">
            <stDim:w>750.000000</stDim:w>
            <stDim:h>630.455017</stDim:h>
            <stDim:unit>Pixels</stDim:unit>
         </xmpTPg:MaxPageSize>
         <xmpTPg:NPages>1</xmpTPg:NPages>
         <xmpTPg:HasVisibleTransparency>False</xmpTPg:HasVisibleTransparency>
         <xmpTPg:HasVisibleOverprint>False</xmpTPg:HasVisibleOverprint>
         <xmpTPg:PlateNames>
            <rdf:Seq>
               <rdf:li>Cyan</rdf:li>
               <rdf:li>Magenta</rdf:li>
               <rdf:li>Yellow</rdf:li>
               <rdf:li>Black</rdf:li>
            </rdf:Seq>
         </xmpTPg:PlateNames>
         <xmpTPg:SwatchGroups>
            <rdf:Seq>
               <rdf:li rdf:parseType="Resource">
                  <xmpG:groupName>Default Swatch Group</xmpG:groupName>
                  <xmpG:groupType>0</xmpG:groupType>
               </rdf:li>
            </rdf:Seq>
         </xmpTPg:SwatchGroups>
         <dc:format>image/svg+xml</dc:format>
         <xmpMM:DerivedFrom rdf:parseType="Resource">
            <stRef:instanceID>xmp.iid:341893ab-2594-4e42-8afb-b0f18f2a4d4a</stRef:instanceID>
            <stRef:documentID>xmp.did:341893ab-2594-4e42-8afb-b0f18f2a4d4a</stRef:documentID>
            <stRef:originalDocumentID>xmp.did:c16f92f2-3959-ec4c-b214-7be59ca64c8c</stRef:originalDocumentID>
         </xmpMM:DerivedFrom>
         <xmpMM:DocumentID>xmp.did:94e80a2c-d3c4-de42-850d-043ca356a031</xmpMM:DocumentID>
         <xmpMM:InstanceID>xmp.iid:94e80a2c-d3c4-de42-850d-043ca356a031</xmpMM:InstanceID>
         <xmpMM:OriginalDocumentID>xmp.did:c16f92f2-3959-ec4c-b214-7be59ca64c8c</xmpMM:OriginalDocumentID>
         <xmpMM:History>
            <rdf:Seq>
               <rdf:li rdf:parseType="Resource">
                  <stEvt:action>saved</stEvt:action>
                  <stEvt:instanceID>xmp.iid:c16f92f2-3959-ec4c-b214-7be59ca64c8c</stEvt:instanceID>
                  <stEvt:when>2020-06-02T23:47:18-04:00</stEvt:when>
                  <stEvt:softwareAgent>Adobe Illustrator 24.1 (Windows)</stEvt:softwareAgent>
                  <stEvt:changed>/</stEvt:changed>
               </rdf:li>
               <rdf:li rdf:parseType="Resource">
                  <stEvt:action>saved</stEvt:action>
                  <stEvt:instanceID>xmp.iid:94e80a2c-d3c4-de42-850d-043ca356a031</stEvt:instanceID>
                  <stEvt:when>2020-06-03T00:06:35-04:00</stEvt:when>
                  <stEvt:softwareAgent>Adobe Illustrator 24.1 (Windows)</stEvt:softwareAgent>
                  <stEvt:changed>/</stEvt:changed>
               </rdf:li>
            </rdf:Seq>
         </xmpMM:History>
      </rdf:Description>
   </rdf:RDF>
</x:xmpmeta>
                                                                                                    
                                                                                                    
                                                                                                    
                                                                                                    
                                                                                                    
                                                                                                    
                                                                                                    
                                                                                                    
                                                                                                    
                                                                                                    
                                                                                                    
                                                                                                    
                                                                                                    
                                                                                                    
                                                                                                    
                                                                                                    
                                                                                                    
                                                                                                    
                                                                                                    
                                                                                                    
                           
<?xpacket end="w"?>
	</metadata>
<rect id="svgEditorBackground" x="0.2" y="0.2" class="st0" width="749.5" height="630.1"/>
<g id="Layer_1_1_">
	<path d="M664.2,214c-6.7-16.7-20.5-20.9-21.8-22c-11.7-10.3-2.5-21.2-19.9-30.7c-18.3-9.9-71.9-37-114.2-31.4
		c-9.2,1.2-27.8,17.6-41.2,17.6c-21.9,0-92.1,0-92.1,0s-70.3,0-92.1,0c-13.4,0-32-16.4-41.2-17.6c-42.2-5.6-95.9,21.4-114.2,31.4
		c-17.5,9.5-8.2,20.3-19.9,30.7c-1.3,1.1-15.1,5.3-21.8,22C23.1,370-1.5,469,0.3,529c2.9,94.4,76.5,101.3,76.5,101.3
		c37-8.6,111.5-129.1,168.4-129.1c31.1,0,129.7,0,129.7,0s98.6,0,129.7,0c57,0,131.4,120.4,168.4,129.1c0,0,73.6-6.9,76.5-101.3
		C751.5,469,726.9,370,664.2,214z"/>
	<g>
		<path class="st0" d="M106.4,192.7c0.5-0.3,0.9-0.5,1.2-0.6C107.2,192.3,106.8,192.5,106.4,192.7z"/>
		<path class="st0" d="M642.4,192c0.2,0.2,0.8,0.4,1.5,0.8C643.4,192.6,642.9,192.3,642.4,192z"/>
		
			<linearGradient id="SVGID_1_" gradientUnits="userSpaceOnUse" x1="-582.7209" y1="854.526" x2="-582.7209" y2="855.526" gradientTransform="matrix(749.5418 0 0 -472.9817 437148.625 404805.4375)">
			<stop  offset="0" style="stop-color:#239CEC"/>
			<stop  offset="1" style="stop-color:#5A07B4"/>
		</linearGradient>
		<path class="st1" d="M664.2,214c-3.3-8.3-8.4-13.5-12.9-16.8c-3-2.2-5.7-3.6-7.4-4.4c-0.8-0.4-1.3-0.6-1.5-0.8
			c-33.5-18-97.4-38.1-117.4-34.3c-26,5-65.5,79.7-88.9,79.7c-15.1,0-60.5,0-60.5,0s-45.4,0-60.5,0c-23.4,0-62.9-74.6-88.9-79.7
			c-19.6-3.8-85.5,16.4-118.7,34.3c-0.2,0.2-0.6,0.4-1.2,0.6c-1.8,0.8-5.1,2.4-8.7,5.3c-4.2,3.3-8.8,8.3-11.9,16
			C23.1,370-1.5,469,0.3,529c2.9,94.4,76.5,101.3,76.5,101.3c37-8.6,111.5-129.1,168.4-129.1c31.1,0,129.7,0,129.7,0s98.6,0,129.7,0
			c57,0,131.4,120.4,168.4,129.1c0,0,73.6-6.9,76.5-101.3C751.5,469,726.9,370,664.2,214L664.2,214z"/>
	</g>
	<line class="st0" x1="107.6" y1="192" x2="107.6" y2="193.6"/>
	<line class="st0" x1="642.4" y1="191.5" x2="642.4" y2="192.5"/>
	<g id="Dpad">
		<g>
			<path d="M277.7,462c-33.4,0-60.6-27.2-60.6-60.6c0-33.4,27.2-60.6,60.6-60.6c33.4,0,60.6,27.2,60.6,60.6
				C338.3,434.8,311.1,462,277.7,462z"/>
			<g>
				<path class="st2" d="M277.7,341.8c32.9,0,59.6,26.7,59.6,59.6c0,32.9-26.7,59.6-59.6,59.6c-32.9,0-59.6-26.7-59.6-59.6
					C218.1,368.6,244.9,341.8,277.7,341.8 M277.7,339.8c-34,0-61.6,27.6-61.6,61.6c0,34,27.6,61.6,61.6,61.6
					c34,0,61.6-27.6,61.6-61.6C339.3,367.4,311.7,339.8,277.7,339.8L277.7,339.8z"/>
			</g>
		</g>
		<g class="st3">
			<g class="st4">
				<path class="st5" d="M291.3,353.5L291.3,353.5c0-5-27.1-5-27.1,0c0,23.8,0,95.9,0,95.9l0,0l0,0c0,5,27.1,5,27.1,0
					C291.3,425.6,291.3,353.5,291.3,353.5L291.3,353.5z"/>
			</g>
			<g class="st4">
				<path class="st5" d="M229.8,387.9L229.8,387.9c-5,0-5,27.1,0,27.1c23.9,0,95.9,0,95.9,0l0,0l0,0c5,0,5-27.1,0-27.1
					C301.8,387.9,229.8,387.9,229.8,387.9L229.8,387.9z"/>
			</g>
		</g>
		<g class="st3">
			<g class="st4">
				<path class="st6" d="M277.7,349.8c6.8,0,13.6,1.2,13.6,3.7v0h0c0,0,0,15.4,0,34.4c13.8,0,26.6,0,34.4,0c5,0,5,27.1,0,27.1l0,0
					l0,0c0,0-15.5,0-34.4,0c0,13.8,0,26.7,0,34.4c0,2.5-6.8,3.7-13.6,3.7c-6.8,0-13.6-1.2-13.6-3.7l0,0l0,0c0,0,0-15.4,0-34.4
					c-13.8,0-26.6,0-34.4,0c-5,0-5-27.1,0-27.1h0c0,0,15.4,0,34.4,0c0-13.8,0-26.7,0-34.4C264.2,351,270.9,349.8,277.7,349.8
					 M277.7,346.2c-3.8,0-7.5,0.4-10.2,1c-5.8,1.4-7,4.2-7,6.3v30.8h-30.8c-2.1,0-4.9,1.2-6.3,7c-0.7,2.7-1,6.4-1,10.2
					c0,3.8,0.4,7.4,1,10.2c1.4,5.8,4.2,7,6.3,7h30.8v30.8v0.8l0.1,0.2c0.4,1.9,2.1,4,6.9,5.2c2.7,0.7,6.3,1,10.2,1
					c3.8,0,7.4-0.4,10.2-1c5.8-1.4,7-4.2,7-6.3v-30.8h30.8h1.5l0.3-0.3c1.7-0.7,3.4-2.5,4.5-6.6c0.7-2.7,1-6.4,1-10.2
					c0-3.8-0.4-7.4-1-10.2c-1.4-5.8-4.2-7-6.3-7h-30.8v-30.8c0-2.1-1.2-4.9-7-6.3C285.2,346.5,281.5,346.2,277.7,346.2L277.7,346.2z
					"/>
			</g>
			<line class="st7" x1="287.7" y1="357.1" x2="294.9" y2="349.9"/>
			<line class="st7" x1="267.8" y1="356.1" x2="261" y2="349.3"/>
			<line class="st7" x1="322.3" y1="391.2" x2="329" y2="384.5"/>
			<line class="st7" x1="322.8" y1="412.1" x2="328.5" y2="417.8"/>
			<line class="st7" x1="286.7" y1="392.4" x2="295.8" y2="383.3"/>
			<line class="st7" x1="286.2" y1="409.9" x2="296.4" y2="420.1"/>
			<line class="st7" x1="287.6" y1="445.7" x2="295" y2="453.1"/>
			<line class="st7" x1="268.6" y1="445" x2="259.8" y2="453.8"/>
			<line class="st7" x1="269.6" y1="409.5" x2="258.7" y2="420.5"/>
			<line class="st7" x1="270.4" y1="394.1" x2="258" y2="381.7"/>
			<line class="st7" x1="233.8" y1="410.9" x2="225.7" y2="419.1"/>
			<line class="st7" x1="233.5" y1="391.6" x2="226.1" y2="384.2"/>
		</g>
		<g>
			<g>
				<path class="st5" d="M277.7,452.6c-7.1,0-12.7-1.3-13-3.1c0,0,0-0.1,0-0.1c0-0.1,0-15.5,0-34.4c0-0.3-0.2-0.5-0.5-0.5h-34.4
					c-1.8,0-3.2-5.7-3.2-13s1.4-13,3.2-13h34.4c0.3,0,0.5-0.2,0.5-0.5v-34.4c0,0,0-0.1,0-0.1l0.1-0.2c0,0,0.1-0.1,0.1-0.1
					c0.5-0.8,2.1-1.5,4.5-2c0.3-0.1,0.6-0.1,0.9-0.2c0.4-0.1,0.7-0.1,1-0.1c0,0,0.1,0,0.2,0c0.3,0,0.6-0.1,0.9-0.1
					c0.3,0,0.7-0.1,1-0.1c0.4,0,0.7-0.1,1-0.1l2.4-0.1c0.4,0,0.7,0,1,0c7.3,0,13.1,1.4,13.1,3.2c0,0.2,0,16,0,34.4
					c0,0.3,0.2,0.5,0.5,0.5h34.4c1.8,0,3.2,5.7,3.2,13s-1.4,13-3.2,13h-34.4c-0.3,0-0.5,0.2-0.5,0.5v34.4c0,0,0,0.1,0,0.2
					C290.5,451.3,284.9,452.6,277.7,452.6z"/>
				<path class="st8" d="M277.7,350.8c8.1,0,12.6,1.6,12.6,2.7c0,0,0,0,0,0v34.4c0,0.6,0.4,1,1,1h34.4c1.1,0,2.7,4.8,2.7,12.5
					c0,7.8-1.6,12.5-2.7,12.5h-34.4c-0.6,0-1,0.4-1,1v34.4c0,0,0,0,0,0.1c-0.2,1.1-4.7,2.7-12.6,2.7c-7.9,0-12.4-1.5-12.5-2.7
					c0,0,0-0.1,0-0.1V415c0-0.6-0.4-1-1-1h-34.4c-1.1,0-2.7-4.8-2.7-12.5s1.6-12.6,2.7-12.6h34.4c0.6,0,1-0.4,1-1v-34.4c0,0,0,0,0,0
					l0,0c0,0,0,0,0,0l0,0c0,0,0-0.1,0-0.1c0,0,0,0,0-0.1c0.2-0.2,0.9-1.1,4.2-1.8c0,0,0,0,0.1,0c0.3-0.1,0.6-0.1,0.8-0.2l0.1,0
					c0.3-0.1,0.6-0.1,0.8-0.1c0,0,0.1,0,0.2,0c0.3,0,0.6-0.1,0.9-0.1c0,0,0,0,0,0c0.3,0,0.7-0.1,1-0.1l0,0c0,0,0,0,0,0
					c0.3,0,0.6-0.1,1-0.1l0.1,0c0.2,0,0.4,0,0.6,0l0.4,0c0.1,0,0.1,0,0.2,0c0.3,0,0.7,0,1,0l0.1,0
					C277,350.8,277.4,350.8,277.7,350.8 M277.7,349.8c-0.3,0-0.7,0-1.1,0c0,0-0.1,0-0.1,0c-0.3,0-0.7,0-1,0c-0.1,0-0.1,0-0.2,0
					c-0.3,0-0.7,0-1,0c0,0-0.1,0-0.1,0c-0.3,0-0.7,0-1,0.1c0,0,0,0,0,0c-0.3,0-0.7,0.1-1,0.1h0c-0.3,0-0.7,0.1-1,0.1c0,0,0,0-0.1,0
					c-0.3,0-0.6,0.1-0.9,0.1c0,0,0,0-0.1,0c-0.3,0.1-0.6,0.1-0.9,0.2c0,0,0,0,0,0c-2.4,0.5-4.2,1.2-4.9,2.2c0,0-0.1,0.1-0.1,0.2
					c0,0,0,0,0,0c0,0.1,0,0.1,0,0.2c0,0,0,0,0,0c0,0,0,0.1,0,0.1c0,0.1,0,0.1,0,0.2c0,7.7,0,20.6,0,34.4c-19,0-34.4,0-34.4,0h0
					c-5,0-5,27.1,0,27.1c7.8,0,20.6,0,34.4,0c0,19,0,34.4,0,34.4l0,0c0,0.1,0,0.2,0,0.2c0.4,2.3,7,3.5,13.5,3.5
					c6.6,0,13.1-1.2,13.5-3.5c0-0.1,0-0.2,0-0.2c0-7.7,0-20.6,0-34.4c18.9,0,34.4,0,34.4,0l0,0c5,0,5-27.1,0-27.1
					c-7.8,0-20.6,0-34.4,0c0-19,0-34.4,0-34.4h0v0C291.3,351,284.5,349.8,277.7,349.8L277.7,349.8z"/>
			</g>
			<path class="st9" d="M264.2,387.9l-3.6-3.6h-30.8c-0.9,0-1.8,0.2-2.8,0.8l2.8,2.8C229.8,387.9,245.2,387.9,264.2,387.9z"/>
			<path class="st10" d="M229.8,387.9L229.8,387.9l-2.8-2.8c-1.4,0.9-2.7,2.7-3.5,6.1c-0.7,2.7-1,6.4-1,10.2c0,3.8,0.4,7.4,1,10.2
				c0.8,3.4,2.2,5.2,3.5,6.1l2.8-2.8C224.8,415,224.8,387.9,229.8,387.9z"/>
			<path class="st9" d="M269.3,350.5C269.3,350.5,269.3,350.5,269.3,350.5c0.3-0.1,0.6-0.1,0.9-0.2c0,0,0,0,0.1,0
				c0.3-0.1,0.6-0.1,0.9-0.1c0,0,0,0,0.1,0c0.3,0,0.7-0.1,1-0.1h0c0.3,0,0.7-0.1,1-0.1c0,0,0,0,0,0c0.3,0,0.7-0.1,1-0.1
				c0,0,0.1,0,0.1,0c0.3,0,0.6,0,1,0c0.1,0,0.1,0,0.2,0c0.3,0,0.7,0,1,0c0,0,0.1,0,0.1,0c0.3,0,0.7,0,1.1,0c6.8,0,13.6,1.2,13.6,3.7
				l2.8-2.8c-0.9-1.4-2.7-2.7-6.1-3.5c-2.7-0.7-6.4-1-10.2-1c-3.8,0-7.5,0.4-10.2,1c-2.9,0.7-4.7,1.8-5.7,3l2.6,2.6
				C265,351.7,266.8,351,269.3,350.5z"/>
			<path class="st11" d="M325.7,387.9l2.8-2.8c-0.9-0.6-1.9-0.8-2.8-0.8h-30.8l-3.6,3.6C305.1,387.9,317.9,387.9,325.7,387.9z"/>
			<path class="st12" d="M291.3,353.5L291.3,353.5c0,0,0,15.4,0,34.4l3.6-3.6l0,0v-30.8c0-0.9-0.2-1.8-0.8-2.8L291.3,353.5
				L291.3,353.5z"/>
			<path class="st10" d="M264.2,353.5c0-0.1,0-0.1,0-0.2c0,0,0-0.1,0-0.1c0,0,0,0,0,0c0-0.1,0-0.1,0-0.2c0,0,0,0,0,0
				c0-0.1,0.1-0.1,0.1-0.2l-2.6-2.6c-1,1.1-1.3,2.3-1.3,3.3v30.8l3.6,3.6C264.2,374.1,264.2,361.2,264.2,353.5z"/>
			<path class="st13" d="M325.7,415L325.7,415c0,0-15.5,0-34.4,0l3.6,3.6h30.8h1.5l0.3-0.3c0.3-0.1,0.6-0.3,0.9-0.5L325.7,415
				L325.7,415z"/>
			<path class="st14" d="M291.3,449.4l2.8,2.8c0.6-0.9,0.8-1.9,0.8-2.8v-30.8l-3.6-3.6C291.3,428.8,291.3,441.7,291.3,449.4z"/>
			<path class="st14" d="M332,391.3c-0.8-3.4-2.2-5.2-3.6-6.1l-2.8,2.8c5,0,5,27.1,0,27.1l2.8,2.8c1.4-0.9,2.7-2.7,3.5-6.1
				c0.7-2.7,1-6.4,1-10.2C333,397.6,332.7,394,332,391.3z"/>
			<path class="st13" d="M291.3,449.6c-0.4,2.3-7,3.5-13.5,3.5s-13.1-1.2-13.5-3.5c0-0.1,0-0.2,0-0.2l-2.8,2.8
				c0.9,1.4,2.7,2.7,6.2,3.5c2.7,0.7,6.3,1,10.2,1c3.8,0,7.4-0.4,10.2-1c3.4-0.8,5.2-2.2,6.1-3.5l-2.8-2.8
				C291.3,449.5,291.3,449.5,291.3,449.6z"/>
			<path class="st12" d="M264.2,449.4L264.2,449.4c0,0,0-15.4,0-34.4l-3.6,3.6v30.8v0.8l0.1,0.2c0.1,0.5,0.3,1.1,0.7,1.7
				L264.2,449.4L264.2,449.4z"/>
			<path class="st15" d="M229.8,415l-2.8,2.8c1,0.6,1.9,0.8,2.8,0.8h30.8l3.6-3.6C250.4,415,237.5,415,229.8,415z"/>
		</g>
		<g class="st3">
			<path class="st16" d="M264.2,387.9l-3.6-3.6L264.2,387.9z"/>
			<polygon class="st17" points="291.3,387.9 294.9,384.3 294.9,384.3 294.9,384.3 			"/>
			<g id="Up" class="st4">
				<g>
					<path class="st18" d="M264.7,387.7v-34.2c0,0,0-0.1,0-0.1l0.1-0.2c0,0,0.1-0.1,0.1-0.1c0.5-0.8,2.1-1.5,4.5-2
						c0.3-0.1,0.6-0.1,0.9-0.2c0.4-0.1,0.7-0.1,1-0.1c0,0,0.1,0,0.2,0c0.3,0,0.6-0.1,0.9-0.1c0.3,0,0.7-0.1,1-0.1
						c0.4,0,0.7-0.1,1-0.1l2.4-0.1c0.4,0,0.7,0,1,0c7.3,0,13.1,1.4,13.1,3.2c0,0.2,0,15.9,0,34.2l-13.1,13L264.7,387.7z"/>
					<path class="st19" d="M277.7,350.8c8.1,0,12.6,1.6,12.6,2.7c0,0,0,0,0,0v33.9L277.7,400l-12.6-12.5v-34c0,0,0,0,0,0l0,0
						c0,0,0,0,0,0l0,0c0,0,0-0.1,0-0.1c0,0,0,0,0-0.1c0.2-0.2,0.9-1.1,4.2-1.8c0,0,0,0,0.1,0c0.3-0.1,0.6-0.1,0.8-0.2l0.1,0
						c0.3-0.1,0.6-0.1,0.8-0.1c0,0,0.1,0,0.2,0c0.3,0,0.6-0.1,0.9-0.1c0,0,0,0,0,0c0.3,0,0.7-0.1,1-0.1l0,0c0,0,0,0,0,0
						c0.3,0,0.6-0.1,1-0.1l0.1,0c0.2,0,0.4,0,0.6,0l0.4,0c0.1,0,0.1,0,0.2,0c0.3,0,0.7,0,1,0l0.1,0
						C277,350.8,277.4,350.8,277.7,350.8 M277.7,349.8c-0.3,0-0.7,0-1.1,0c0,0-0.1,0-0.1,0c-0.3,0-0.7,0-1,0c-0.1,0-0.1,0-0.2,0
						c-0.3,0-0.7,0-1,0c0,0-0.1,0-0.1,0c-0.3,0-0.7,0-1,0.1c0,0,0,0,0,0c-0.3,0-0.7,0.1-1,0.1h0c-0.3,0-0.7,0.1-1,0.1c0,0,0,0-0.1,0
						c-0.3,0-0.6,0.1-0.9,0.1c0,0,0,0-0.1,0c-0.3,0.1-0.6,0.1-0.9,0.2c0,0,0,0,0,0c-2.4,0.5-4.2,1.2-4.9,2.2c0,0-0.1,0.1-0.1,0.2
						c0,0,0,0,0,0c0,0.1,0,0.1,0,0.2c0,0,0,0,0,0c0,0,0,0.1,0,0.1c0,0.1,0,0.1,0,0.2c0,7.7,0,20.6,0,34.4l13.6,13.5l13.6-13.5
						c0-19,0-34.4,0-34.4h0v0C291.3,351,284.5,349.8,277.7,349.8L277.7,349.8z"/>
				</g>
				<path class="st20" d="M269.3,350.5C269.3,350.5,269.3,350.5,269.3,350.5c0.3-0.1,0.6-0.1,0.9-0.2c0,0,0,0,0.1,0
					c0.3-0.1,0.6-0.1,0.9-0.1c0,0,0,0,0.1,0c0.3,0,0.7-0.1,1-0.1h0c0.3,0,0.7-0.1,1-0.1c0,0,0,0,0,0c0.3,0,0.7-0.1,1-0.1
					c0,0,0.1,0,0.1,0c0.3,0,0.6,0,1,0c0.1,0,0.1,0,0.2,0c0.3,0,0.7,0,1,0c0,0,0.1,0,0.1,0c0.3,0,0.7,0,1.1,0
					c6.8,0,13.6,1.2,13.6,3.7l2.8-2.8c-0.9-1.4-2.7-2.7-6.1-3.5c-2.7-0.7-6.4-1-10.2-1c-3.8,0-7.5,0.4-10.2,1
					c-2.9,0.7-4.7,1.8-5.7,3l2.6,2.6C265,351.7,266.8,351,269.3,350.5z"/>
				<path class="st21" d="M291.3,353.5L291.3,353.5c0,0,0,15.4,0,34.4l3.6-3.6v-30.8c0-0.9-0.2-1.8-0.8-2.8L291.3,353.5L291.3,353.5
					z"/>
				<path class="st22" d="M264.2,353.5c0-0.1,0-0.1,0-0.2c0,0,0-0.1,0-0.1c0,0,0,0,0,0c0-0.1,0-0.1,0-0.2c0,0,0,0,0,0
					c0-0.1,0.1-0.1,0.1-0.2l-2.6-2.6c-1,1.1-1.3,2.3-1.3,3.3v30.8l3.6,3.6C264.2,374.1,264.2,361.2,264.2,353.5z"/>
			</g>
			<polygon class="st23" points="294.9,418.6 291.3,415 291.3,415 			"/>
			<g id="Right" class="st4">
				<g>
					<path class="st18" d="M291.5,414.5l-13.1-13.1l13.1-13h34.2c1.8,0,3.2,5.7,3.2,13s-1.4,13-3.2,13H291.5z"/>
					<path class="st19" d="M325.7,388.9c1.1,0,2.7,4.8,2.7,12.5c0,7.8-1.6,12.5-2.7,12.5h-34l-12.6-12.6l12.6-12.5H325.7
						 M325.7,387.9c-7.8,0-20.6,0-34.4,0l-13.6,13.5l13.6,13.6c18.9,0,34.4,0,34.4,0l0,0C330.6,415,330.6,387.9,325.7,387.9
						L325.7,387.9z"/>
				</g>
				<path class="st24" d="M325.7,387.9l2.8-2.8c-0.9-0.6-1.9-0.8-2.8-0.8h-30.8l-3.6,3.6C305.1,387.9,317.9,387.9,325.7,387.9z"/>
				<path class="st25" d="M325.7,415L325.7,415c0,0-15.5,0-34.4,0l3.6,3.6h30.8h1.5l0.3-0.3c0.3-0.1,0.6-0.3,0.9-0.5L325.7,415
					L325.7,415z"/>
				<path class="st26" d="M328.4,385.1l-2.8,2.8c5,0,5,27.1,0,27.1l2.8,2.8c1.4-0.9,2.7-2.7,3.5-6.1c0.7-2.7,1-6.4,1-10.2
					c0-3.8-0.4-7.4-1-10.2C331.1,387.9,329.8,386,328.4,385.1z"/>
			</g>
			<g id="Down" class="st4">
				<g>
					<path class="st18" d="M277.7,452.6c-7.1,0-12.7-1.3-13-3.1c0,0,0-0.1,0-0.1c0-0.1,0-15.4,0-34.2l13.1-13.1l13.1,13.1v34.2
						c0,0,0,0.1,0,0.2C290.5,451.3,284.9,452.6,277.7,452.6z"/>
					<path class="st19" d="M277.7,402.8l12.6,12.6v34c0,0,0,0,0,0.1c-0.2,1.1-4.7,2.7-12.6,2.7c-7.9,0-12.4-1.5-12.5-2.7
						c0,0,0-0.1,0-0.1v-34L277.7,402.8 M277.7,401.4L264.2,415c0,19,0,34.4,0,34.4l0,0c0,0.1,0,0.2,0,0.2c0.4,2.3,7,3.5,13.5,3.5
						c6.6,0,13.1-1.2,13.5-3.5c0-0.1,0-0.2,0-0.2c0-7.7,0-20.6,0-34.4L277.7,401.4L277.7,401.4z"/>
				</g>
				<path class="st26" d="M291.3,449.4l2.8,2.8c0.6-0.9,0.8-1.9,0.8-2.8v-30.8l-3.6-3.6C291.3,428.8,291.3,441.7,291.3,449.4z"/>
				<path class="st25" d="M291.3,449.6c-0.4,2.3-7,3.5-13.5,3.5s-13.1-1.2-13.5-3.5c0-0.1,0-0.2,0-0.2l-2.8,2.8
					c0.9,1.4,2.7,2.7,6.2,3.5c2.7,0.7,6.3,1,10.2,1c3.8,0,7.4-0.4,10.2-1c3.4-0.8,5.2-2.2,6.1-3.5l-2.8-2.8
					C291.3,449.5,291.3,449.5,291.3,449.6z"/>
				<path class="st21" d="M264.2,449.4L264.2,449.4c0,0,0-15.4,0-34.4l-3.6,3.6v30.8v0.8l0.1,0.2c0.1,0.5,0.3,1.1,0.7,1.7
					L264.2,449.4L264.2,449.4z"/>
			</g>
			<g id="left" class="st4">
				<g>
					<path class="st18" d="M229.8,414.5c-1.8,0-3.2-5.7-3.2-13s1.4-13,3.2-13H264l13.1,13L264,414.5H229.8z"/>
					<path class="st19" d="M263.8,388.9l12.6,12.5L263.8,414h-34c-1.1,0-2.7-4.8-2.7-12.5s1.6-12.6,2.7-12.6L263.8,388.9
						 M264.2,387.9c-19,0-34.4,0-34.4,0h0c-5,0-5,27.1,0,27.1c7.8,0,20.6,0,34.4,0l13.6-13.6L264.2,387.9L264.2,387.9z"/>
				</g>
				<path class="st20" d="M264.2,387.9l-3.6-3.6h-30.8c-0.9,0-1.8,0.2-2.8,0.8l2.8,2.8C229.8,387.9,245.2,387.9,264.2,387.9z"/>
				<path class="st22" d="M229.8,387.9L229.8,387.9l-2.8-2.8c-1.4,0.9-2.7,2.7-3.5,6.1c-0.7,2.7-1,6.4-1,10.2c0,3.8,0.4,7.4,1,10.2
					c0.8,3.4,2.2,5.2,3.5,6.1l2.8-2.8C224.8,415,224.8,387.9,229.8,387.9z"/>
				<path class="st27" d="M229.8,415l-2.8,2.8c1,0.6,1.9,0.8,2.8,0.8h30.8l3.6-3.6C250.4,415,237.5,415,229.8,415z"/>
			</g>
		</g>
	</g>
	<g id="Menu_Key">
		<g>
			<path class="st28" d="M448.9,280.4c0,10.4-8.4,18.8-18.8,18.8c-10.4,0-18.8-8.4-18.8-18.8c0-10.4,8.4-18.8,18.8-18.8
				C440.5,261.6,448.9,270,448.9,280.4z"/>
		</g>
		<g>
			<path class="st29" d="M446.2,280.4c0,8.9-7.2,16.1-16.1,16.1c-8.9,0-16.1-7.2-16.1-16.1c0-8.9,7.2-16.1,16.1-16.1
				C439,264.3,446.2,271.5,446.2,280.4z"/>
			<g>
				<rect x="422.9" y="275.8" class="st30" width="14.4" height="1.6"/>
				<rect x="422.9" y="279.7" class="st30" width="14.4" height="1.6"/>
				<rect x="422.9" y="283.5" class="st30" width="14.4" height="1.5"/>
			</g>
		</g>
		<g id="Menu_Pressed" class="st3">
			<path class="st31" d="M446.2,280.4c0,8.9-7.2,16.1-16.1,16.1c-8.9,0-16.1-7.2-16.1-16.1c0-8.9,7.2-16.1,16.1-16.1
				C439,264.3,446.2,271.5,446.2,280.4z"/>
			<g class="st4">
				<rect x="422.9" y="275.8" class="st32" width="14.4" height="1.6"/>
				<rect x="422.9" y="279.7" class="st32" width="14.4" height="1.6"/>
				<rect x="422.9" y="283.5" class="st32" width="14.4" height="1.5"/>
			</g>
		</g>
	</g>
	<g id="Switcher_Key">
		<g>
			<path class="st28" d="M341,280.4c0,10.4-8.4,18.8-18.8,18.8c-10.4,0-18.8-8.4-18.8-18.8c0-10.4,8.4-18.8,18.8-18.8
				C332.5,261.6,341,270,341,280.4z"/>
		</g>
		<g>
			<path class="st29" d="M338.2,280.4c0,8.9-7.2,16.1-16.1,16.1c-8.9,0-16.1-7.2-16.1-16.1c0-8.9,7.2-16.1,16.1-16.1
				C331,264.3,338.2,271.5,338.2,280.4z"/>
			<g>
				<polygon class="st30" points="319.6,280.3 316.6,280.3 316.6,276.5 322.1,276.5 322.1,277.8 323.9,277.8 323.9,274.8 315,274.8 
					315,282.2 319.6,282.2 				"/>
				<path class="st30" d="M320.4,278.4v7.6h9v-7.6H320.4z M327.5,284.2h-5.5v-3.9h5.5V284.2z"/>
			</g>
		</g>
	</g>
	<g id="Left_Stick">
		<g>
			<path class="st33" d="M185.6,351.5c-37.3,0-67.7-30.3-67.7-67.6s30.3-67.6,67.7-67.6c37.3,0,67.7,30.3,67.7,67.6
				S222.9,351.5,185.6,351.5z"/>
		</g>
		<path class="st34" d="M241.7,279.9c0,31-25.1,56-56.1,56c-31,0-56.1-25.1-56.1-56c0-31,25.1-56.1,56.1-56.1
			C216.6,223.8,241.7,248.9,241.7,279.9z"/>
	</g>
	<g id="Right_Stick">
		<g>
			<path class="st33" d="M473,465.4c-37.3,0-67.6-30.3-67.6-67.6c0-37.3,30.3-67.7,67.6-67.7c37.3,0,67.7,30.4,67.7,67.7
				C540.6,435,510.3,465.4,473,465.4z"/>
		</g>
		<path class="st34" d="M529.1,393.8c0,31-25.1,56.1-56.1,56.1c-31,0-56-25.1-56-56.1c0-31,25.1-56.1,56-56.1
			C504,337.7,529.1,362.8,529.1,393.8z"/>
	</g>
	<g id="Button_Base">
		<g id="A">
			<path class="st35" d="M566.6,355.2c-13.9,0-25.2-11.3-25.2-25.2c0-13.9,11.3-25.2,25.2-25.2c13.9,0,25.2,11.3,25.2,25.2
				C591.8,343.9,580.5,355.2,566.6,355.2z"/>
			<path class="st28" d="M566.6,306.4c13.1,0,23.7,10.6,23.7,23.7c0,13.1-10.6,23.7-23.7,23.7c-13.1,0-23.7-10.6-23.7-23.7
				C543,317,553.6,306.4,566.6,306.4 M566.6,303.4c-14.7,0-26.7,12-26.7,26.7c0,14.7,12,26.7,26.7,26.7c14.7,0,26.7-12,26.7-26.7
				C593.3,315.4,581.4,303.4,566.6,303.4L566.6,303.4z"/>
		</g>
		<g id="Y">
			<path class="st35" d="M566.6,254.2c-13.9,0-25.2-11.3-25.2-25.2c0-13.9,11.3-25.2,25.2-25.2c13.9,0,25.2,11.3,25.2,25.2
				C591.8,242.9,580.5,254.2,566.6,254.2z"/>
			<path class="st28" d="M566.6,205.4c13.1,0,23.7,10.6,23.7,23.7c0,13.1-10.6,23.7-23.7,23.7c-13.1,0-23.7-10.6-23.7-23.7
				C543,216,553.6,205.4,566.6,205.4 M566.6,202.4c-14.7,0-26.7,12-26.7,26.7c0,14.7,12,26.7,26.7,26.7c14.7,0,26.7-12,26.7-26.7
				C593.3,214.3,581.4,202.4,566.6,202.4L566.6,202.4z"/>
		</g>
		<g id="B">
			<path class="st35" d="M617.2,304.7c-13.9,0-25.2-11.3-25.2-25.2c0-13.9,11.3-25.2,25.2-25.2c13.9,0,25.2,11.3,25.2,25.2
				C642.3,293.4,631,304.7,617.2,304.7z"/>
			<path class="st28" d="M617.2,255.9c13.1,0,23.7,10.6,23.7,23.7c0,13.1-10.6,23.7-23.7,23.7c-13.1,0-23.7-10.6-23.7-23.7
				C593.5,266.5,604.1,255.9,617.2,255.9 M617.2,252.9c-14.7,0-26.7,12-26.7,26.7c0,14.7,12,26.7,26.7,26.7
				c14.7,0,26.7-12,26.7-26.7C643.8,264.8,631.9,252.9,617.2,252.9L617.2,252.9z"/>
		</g>
		<g id="X">
			<path class="st35" d="M516.1,304.7c-13.9,0-25.2-11.3-25.2-25.2c0-13.9,11.3-25.2,25.2-25.2c13.9,0,25.2,11.3,25.2,25.2
				C541.3,293.4,530,304.7,516.1,304.7z"/>
			<path class="st28" d="M516.1,255.9c13.1,0,23.7,10.6,23.7,23.7c0,13.1-10.6,23.7-23.7,23.7c-13.1,0-23.7-10.6-23.7-23.7
				C492.5,266.5,503.1,255.9,516.1,255.9 M516.1,252.9c-14.7,0-26.7,12-26.7,26.7c0,14.7,12,26.7,26.7,26.7
				c14.7,0,26.7-12,26.7-26.7C542.8,264.8,530.8,252.9,516.1,252.9L516.1,252.9z"/>
		</g>
	</g>
	<g>
		<g>
			<path class="st15" d="M375.6,156.6c0,0-88.9-1.1-100.5-3l-16.4,30.5c20.2,23.3,41.6,53.3,56.4,53.3c15.1,0,60.5,0,60.5,0
				s45.4,0,60.5,0c14.9,0,36.2-30,56.4-53.3l-16.4-30.5C464.5,155.5,375.6,156.6,375.6,156.6z"/>
			<path class="st36" d="M476.1,153.6l-3.6-6.8c-1.9,0.5-3.7,0.7-5.4,0.7c-21.9,0-92.1,0-92.1,0s-70.3,0-92.1,0
				c-1.4,0-2.8-0.2-4.3-0.5l-3.5,6.5c11.6,1.9,100.5,3,100.5,3S464.5,155.5,476.1,153.6z"/>
		</g>
		<g id="RB_1_">
			<path class="st15" d="M642.4,192c-9-7.9-5.6-16.2-11.5-23.8c0.2,0.3,0.5,0.7,0.7,1c0,0-96.5-42-120.7-34.5
				c-15.6,4.9-27.2,15.3-32.8,18.2l15.9,29.6c11.2-12.7,21.9-23,31-24.7C545,153.9,608.9,174,642.4,192
				C642.4,192,642.4,192,642.4,192z"/>
			<path class="st36" d="M510.9,134.7c24.3-7.6,120.7,34.4,120.7,34.5c-0.2-0.3-0.5-0.7-0.7-1c0,0-0.1-0.1-0.1-0.1
				c-0.1-0.1-0.2-0.2-0.3-0.4c0-0.1-0.1-0.1-0.1-0.2c-0.1-0.1-0.2-0.2-0.3-0.3c-0.1-0.1-0.1-0.1-0.2-0.2c-0.1-0.1-0.2-0.2-0.3-0.3
				c-0.1-0.1-0.1-0.1-0.2-0.2c-0.1-0.1-0.2-0.2-0.3-0.3c-0.1-0.1-0.1-0.1-0.2-0.2c-0.1-0.1-0.2-0.2-0.3-0.3
				c-0.1-0.1-0.2-0.1-0.2-0.2c-0.1-0.1-0.2-0.2-0.3-0.3c-0.1-0.1-0.1-0.1-0.2-0.2c-0.1-0.1-0.2-0.2-0.3-0.3
				c-0.1-0.1-0.2-0.1-0.3-0.2c-0.1-0.1-0.2-0.2-0.3-0.3c-0.1-0.1-0.2-0.1-0.3-0.2c-0.1-0.1-0.2-0.2-0.4-0.3c-0.1,0-0.2-0.1-0.3-0.2
				c-0.1-0.1-0.3-0.2-0.4-0.3c-0.1-0.1-0.2-0.1-0.3-0.2c-0.1-0.1-0.3-0.2-0.4-0.3c-0.1-0.1-0.2-0.1-0.3-0.2
				c-0.2-0.1-0.3-0.2-0.5-0.3c-0.1-0.1-0.2-0.1-0.3-0.2c-0.2-0.1-0.4-0.2-0.5-0.3c-0.1-0.1-0.2-0.1-0.3-0.2
				c-0.3-0.2-0.6-0.3-0.8-0.5c-18.3-9.9-71.9-37-114.2-31.4c-7.6,1-21.6,12.3-33.8,16.3l3.6,6.7C483.7,150,495.3,139.6,510.9,134.7z
				"/>
		</g>
		<g id="LB_1_">
			<path class="st36" d="M241.7,130c-42.2-5.6-95.9,21.4-114.2,31.4c-0.3,0.2-0.6,0.3-0.8,0.5c-0.1,0.1-0.2,0.1-0.2,0.2
				c-0.2,0.1-0.4,0.2-0.5,0.3c-0.1,0.1-0.2,0.1-0.3,0.2c-0.1,0.1-0.3,0.2-0.5,0.3c-0.1,0-0.2,0.1-0.3,0.2c-0.1,0.1-0.3,0.2-0.4,0.3
				c-0.1,0.1-0.2,0.1-0.3,0.2c-0.1,0.1-0.3,0.2-0.4,0.3c-0.1,0.1-0.2,0.1-0.3,0.2c-0.1,0.1-0.3,0.2-0.4,0.3
				c-0.1,0.1-0.2,0.1-0.2,0.2c-0.1,0.1-0.2,0.2-0.4,0.3c-0.1,0.1-0.1,0.1-0.2,0.2c-0.1,0.1-0.2,0.2-0.3,0.3
				c-0.1,0.1-0.1,0.1-0.2,0.2c-0.1,0.1-0.2,0.2-0.3,0.3c-0.1,0.1-0.1,0.1-0.2,0.2c-0.1,0.1-0.2,0.2-0.3,0.3c-0.1,0-0.1,0.1-0.2,0.2
				c-0.1,0.1-0.2,0.2-0.3,0.3c0,0.1-0.1,0.1-0.1,0.2c-0.1,0.1-0.2,0.2-0.3,0.3c0,0-0.1,0.1-0.1,0.1c-0.1,0.1-0.2,0.3-0.3,0.4
				c0,0-0.1,0.1-0.1,0.1c-0.1,0.1-0.2,0.3-0.3,0.4c0,0,0,0.1-0.1,0.1c-0.1,0.1-0.2,0.3-0.3,0.4c0,0,0,0,0,0
				c-0.1,0.2-0.2,0.3-0.3,0.5c0,0,97.6-41.9,121.9-34.4c15.5,4.9,27.2,15.3,32.8,18.2l3.4-6.3C264.2,143,249.5,131,241.7,130z"/>
			<g>
				<path class="st15" d="M273.6,153.2c0.2,0.1,0.3,0.1,0.5,0.2C273.9,153.3,273.8,153.3,273.6,153.2z"/>
				<path class="st15" d="M273.2,152.9c-5.6-2.9-17.3-13.3-32.8-18.2c-24.2-7.5-121.2,34.1-121.9,34.4c-5,7.4-2.2,15.3-10.8,23
					c0,0,0,0-0.1,0c33.1-17.9,99.1-38.1,118.7-34.3c9.1,1.8,19.9,12.1,31.1,24.7L273.2,152.9C273.2,152.9,273.2,152.9,273.2,152.9z"
					/>
				<path d="M273.2,152.9c0.2,0.1,0.3,0.2,0.5,0.2C273.5,153.1,273.3,153,273.2,152.9z"/>
			</g>
			<path d="M258,183.3c0.2,0.3,0.5,0.6,0.7,0.8l16.4-30.5l3.5-6.5c-0.3-0.1-0.7-0.1-1-0.2c-0.3-0.1-0.7-0.2-1-0.3l-3.4,6.3
				l-15.8,29.6C257.5,182.8,257.8,183,258,183.3L258,183.3"/>
		</g>
		<path d="M478.1,152.9l-3.6-6.7c-0.3,0.1-0.7,0.2-1,0.3c-0.3,0.1-0.7,0.2-1,0.3l3.6,6.8l16.4,30.5c0.2-0.3,0.5-0.5,0.7-0.8
			c0.2-0.3,0.5-0.5,0.7-0.8L478.1,152.9z"/>
		<path class="st15" d="M357,169.4L357,169.4L357,169.4z"/>
	</g>
	<g>
		<g>
			<g>
				<path class="st30" d="M407.6,196.5c0,18-14.6,32.6-32.6,32.6c-18,0-32.6-14.6-32.6-32.6c0-18,14.6-32.6,32.6-32.6
					C393,163.9,407.6,178.5,407.6,196.5z"/>
			</g>
		</g>
		<path class="st15" d="M384,182.1c0,0,8.9-9.4,13.8-8.9c0,0,0,0,0,0c-0.7-0.7-1.5-1.4-2.3-2c0,0,0,0,0,0c-0.4-0.3-0.8-0.6-1.2-0.9
			c0,0,0,0-0.1-0.1c-0.4-0.3-0.8-0.5-1.2-0.8c0,0,0,0,0,0c-0.4-0.1-0.8-0.1-1.2-0.2c-5.2-0.5-16.9,4.5-16.9,4.5s-11.6-5-16.9-4.5
			c-0.4,0-0.8,0.1-1.2,0.2c0,0,0,0,0,0c-0.4,0.3-0.8,0.6-1.2,0.8c0,0,0,0-0.1,0c-0.4,0.3-0.8,0.6-1.2,0.9c0,0,0,0,0,0
			c-0.8,0.6-1.5,1.3-2.3,2v0c4.8-0.6,13.8,8.9,13.8,8.9s-17.7,20.9-17,34.1c1.1,1.4,2.3,2.8,3.6,4c-0.4-12,22.3-30.1,22.3-30.1
			s22.8,18.1,22.3,30.1c1.3-1.2,2.5-2.6,3.6-4c0,0,0,0,0,0C401.7,203,384,182.1,384,182.1z"/>
	</g>
	<g>
		<g>
			<path class="st15" d="M549,5.7c-0.4-0.3-0.8-0.6-1.2-0.9l-2.3,109.9l53.2,7.2C586.6,5.2,555.7,10.9,549,5.7z"/>
			<path class="st5" d="M522,0.3c-10.8,0.4-12.1,11.4-12.2,15.2v1.2c0,0,2.9,40.7,0,93c9.9,2.3,38.5,5.3,38.5,5.3s0-20.9,0.7-50.6
				c0.8-37.5-1.2-59.8-1.2-59.8C541.4,0.3,534.2-0.1,522,0.3z"/>
		</g>
		<g>
			<path class="st15" d="M201.1,5.7c0.4-0.3,0.8-0.6,1.2-0.9l2.3,109.9l-53.2,7.2C163.5,5.2,194.4,10.9,201.1,5.7z"/>
			<path class="st5" d="M228.1,0.3c10.8,0.4,12.1,11.4,12.2,15.2v1.2c0,0-2.9,40.7,0,93c-9.9,2.3-38.5,5.3-38.5,5.3
				s-0.1-20.9-0.7-50.6c-0.8-37.5,1.2-59.8,1.2-59.8C208.7,0.3,215.9-0.1,228.1,0.3z"/>
		</g>
	</g>
</g>
<g id="Layer_2_1_">
</g>
<g id="Layer_2" class="st3">
	<path class="st4" d="M664.2,214c-6.7-16.7-20.5-20.9-21.8-22c-11.7-10.3-2.5-21.2-19.9-30.7c-18.3-9.9-71.9-37-114.2-31.4
		c-9.2,1.2-27.8,17.6-41.2,17.6c-21.9,0-92.1,0-92.1,0s-70.3,0-92.1,0c-13.4,0-32-16.4-41.2-17.6c-42.2-5.6-95.9,21.4-114.2,31.4
		c-17.5,9.5-8.2,20.3-19.9,30.7c-1.3,1.1-15.1,5.3-21.8,22C23.1,370-1.5,469,0.3,529c2.9,94.4,76.5,101.3,76.5,101.3
		c37-8.6,111.5-129.1,168.4-129.1c31.1,0,129.7,0,129.7,0s98.6,0,129.7,0c57,0,131.4,120.4,168.4,129.1c0,0,73.6-6.9,76.5-101.3
		C751.5,469,726.9,370,664.2,214z"/>
	<path class="st37" d="M339.3,401.4c0,34-27.6,61.6-61.6,61.6c-34,0-61.6-27.6-61.6-61.6c0-34,27.6-61.6,61.6-61.6
		C311.8,339.8,339.3,367.4,339.3,401.4z"/>
	<path class="st37" d="M341,280.4c0,10.4-8.4,18.8-18.8,18.8c-10.4,0-18.8-8.4-18.8-18.8c0-10.4,8.4-18.8,18.8-18.8
		C332.5,261.6,341,270,341,280.4z"/>
	<path class="st38" d="M254.3,283.8c0,37.8-30.8,68.6-68.7,68.6c-37.9,0-68.7-30.8-68.7-68.6c0-37.9,30.8-68.6,68.7-68.6
		C223.5,215.2,254.3,246,254.3,283.8z"/>
	<path class="st38" d="M541.7,397.7c0,37.9-30.8,68.7-68.7,68.7c-37.8,0-68.6-30.8-68.6-68.7c0-37.9,30.8-68.7,68.6-68.7
		C510.8,329.1,541.7,359.9,541.7,397.7z"/>
	<path class="st39" d="M241.7,130c-42.2-5.6-95.9,21.4-114.2,31.4c-0.3,0.2-0.6,0.3-0.8,0.5c-0.1,0.1-0.2,0.1-0.2,0.2
		c-0.2,0.1-0.4,0.2-0.5,0.3c-0.1,0.1-0.2,0.1-0.3,0.2c-0.1,0.1-0.3,0.2-0.5,0.3c-0.1,0-0.2,0.1-0.3,0.2c-0.1,0.1-0.3,0.2-0.4,0.3
		c-0.1,0.1-0.2,0.1-0.3,0.2c-0.1,0.1-0.3,0.2-0.4,0.3c-0.1,0.1-0.2,0.1-0.3,0.2c-0.1,0.1-0.3,0.2-0.4,0.3c-0.1,0.1-0.2,0.1-0.2,0.2
		c-0.1,0.1-0.2,0.2-0.4,0.3c-0.1,0.1-0.1,0.1-0.2,0.2c-0.1,0.1-0.2,0.2-0.3,0.3c-0.1,0.1-0.1,0.1-0.2,0.2c-0.1,0.1-0.2,0.2-0.3,0.3
		c-0.1,0.1-0.1,0.1-0.2,0.2c-0.1,0.1-0.2,0.2-0.3,0.3c-0.1,0-0.1,0.1-0.2,0.2c-0.1,0.1-0.2,0.2-0.3,0.3c0,0.1-0.1,0.1-0.1,0.2
		c-0.1,0.1-0.2,0.2-0.3,0.3c0,0-0.1,0.1-0.1,0.1c-0.1,0.1-0.2,0.3-0.3,0.4c0,0-0.1,0.1-0.1,0.1c-0.1,0.1-0.2,0.3-0.3,0.4
		c0,0,0,0.1-0.1,0.1c-0.1,0.1-0.2,0.3-0.3,0.4c0,0,0,0,0,0c-0.1,0.2-0.2,0.3-0.3,0.5c0,0,97.6-41.9,121.9-34.4
		c15.5,4.9,27.2,15.3,32.8,18.2l3.4-6.3C264.2,143,249.5,131,241.7,130z"/>
	<path class="st40" d="M273.2,152.9c-5.6-2.9-17.3-13.3-32.8-18.2c-24.2-7.5-121.2,34.1-121.9,34.4c-5,7.4-2.2,15.3-10.8,23
		c0,0,0,0-0.1,0c33.1-17.9,99.1-38.1,118.7-34.3c9.1,1.8,19.9,12.1,31.1,24.7L273.2,152.9C273.2,152.9,273.2,152.9,273.2,152.9z"/>
	<path class="st40" d="M375.6,156.6c0,0-88.9-1.1-100.5-3l-16.4,30.5c20.2,23.3,41.6,53.3,56.4,53.3c15.1,0,60.5,0,60.5,0
		s45.4,0,60.5,0c14.9,0,36.2-30,56.4-53.3l-16.4-30.5C464.5,155.5,375.6,156.6,375.6,156.6z"/>
</g>
<g id="Layer_3">
	<g>
		<path d="M52.4,622.6h39.5c6.1-4.3,12.7-10.1,19.7-16.9H28.8C36.6,613.6,44.9,618.9,52.4,622.6z"/>
		<path class="st41" d="M185.6,215.2c10.1,0,19.6,2.2,28.2,6.1h19c-31.6-13.2-66.4-20.5-102.8-20.5c-12.9,0-25.6,0.9-38,2.7
			c-2.3,2.8-4.5,6.2-6.2,10.5c-1,2.4-1.9,4.8-2.9,7.3h74.4C166,217.4,175.5,215.2,185.6,215.2z"/>
		<path class="st41" d="M135.6,236.8H76.8c-2.8,7-5.4,13.9-8,20.7h53.4C125.4,249.8,130,242.8,135.6,236.8z"/>
		<path class="st41" d="M294.9,257.6c-9.7-7.6-19.9-14.5-30.6-20.7h-28.7c5.7,6,10.2,13,13.5,20.7H294.9z"/>
		<path class="st41" d="M117.6,293.1c-0.4-3-0.6-6.1-0.6-9.3c0-2.1,0.1-4.1,0.3-6.1H61.1c-4.4,11.8-8.5,23.3-12.4,34.3H101
			C107.1,304.9,112.9,298.2,117.6,293.1z"/>
		<path class="st41" d="M303.4,280.4c0-0.9,0.1-1.8,0.2-2.7H254c0.2,2,0.3,4,0.3,6.1c0,10.1-2.2,19.6-6.1,28.2h99.1
			c-4.2-5.8-8.7-11.5-13.3-17c-3.2,2.6-7.3,4.1-11.8,4.1C311.8,299.2,303.4,290.8,303.4,280.4z"/>
		<path d="M129.5,183.9c75.8,0,144.6,29.6,195.6,77.9c8.1,1.3,14.5,7.8,15.6,16c29.7,32.9,51.8,72.8,63.6,116.9
			c0.6-13.2,4.8-25.4,11.8-35.6c-18-47.3-47.5-89-84.9-121.7c-6.5,0-12.3,0-16.2,0c-12.7,0-30.2-22.1-47.7-43
			c-28-14.1-58.4-24.1-90.4-29c-17.6,5-36.7,11.7-52.7,18.6C126.1,184,127.8,183.9,129.5,183.9z"/>
		<linearGradient id="SVGID_2_" gradientUnits="userSpaceOnUse" x1="270.2854" y1="161.6926" x2="270.2854" y2="775.2527">
			<stop  offset="5.586592e-02" style="stop-color:#239CEC"/>
			<stop  offset="0.3165" style="stop-color:#3272DC"/>
			<stop  offset="0.9015" style="stop-color:#5909B5"/>
			<stop  offset="0.9106" style="stop-color:#5A07B4"/>
		</linearGradient>
		<path class="st42" d="M129.5,183.9c75.8,0,144.6,29.6,195.6,77.9c8.1,1.3,14.5,7.8,15.6,16c29.7,32.9,51.8,72.8,63.6,116.9
			c0.6-13.2,4.8-25.4,11.8-35.6c-18-47.3-47.5-89-84.9-121.7c-6.5,0-12.3,0-16.2,0c-12.7,0-30.2-22.1-47.7-43
			c-28-14.1-58.4-24.1-90.4-29c-17.6,5-36.7,11.7-52.7,18.6C126.1,184,127.8,183.9,129.5,183.9z"/>
		<path d="M436,455.5c-10.7-6.9-19.4-16.6-24.9-28.1c1.9,13.4,3,27.1,3,41c0,11.1-0.7,22-1.9,32.7c7,0,14.6,0,22.4,0
			c1.1-10.8,1.7-21.7,1.7-32.7C436.3,464.1,436.2,459.8,436,455.5z"/>
		<linearGradient id="SVGID_3_" gradientUnits="userSpaceOnUse" x1="423.708" y1="161.6926" x2="423.708" y2="775.2527">
			<stop  offset="5.586592e-02" style="stop-color:#239CEC"/>
			<stop  offset="0.3165" style="stop-color:#3272DC"/>
			<stop  offset="0.9015" style="stop-color:#5909B5"/>
			<stop  offset="0.9106" style="stop-color:#5A07B4"/>
		</linearGradient>
		<path class="st43" d="M436,455.5c-10.7-6.9-19.4-16.6-24.9-28.1c1.9,13.4,3,27.1,3,41c0,11.1-0.7,22-1.9,32.7c7,0,14.6,0,22.4,0
			c1.1-10.8,1.7-21.7,1.7-32.7C436.3,464.1,436.2,459.8,436,455.5z"/>
		<path class="st44" d="M76.9,630.3c4.5-1,9.5-3.7,15-7.7H52.4C66,629.2,76.9,630.3,76.9,630.3z"/>
		<path class="st44" d="M134.4,329.5c-0.6,6.4-2.1,13.4-6.3,19.4c-8.5,12.4-14.3,24-20.2,31.8c-5.8,7.8-26.7,27.5-32.2,47.3
			c-5.4,19.8-15.9,39.1-20.5,52.7c-4.6,13.6-24.4,50.4-34.5,55C20.4,521.5,7.2,497,7.2,497s-2.7,7.2-6.7,15.1
			c-0.3,5.9-0.3,11.5-0.1,16.8c1.2,38,13.8,61.8,28.5,76.7h82.7c39.1-37.7,91.3-104.5,133.7-104.5c10.4,0,28.4,0,47.7,0
			c-4.7-13.8-9.8-26.5-15-38.2c-0.1,0-0.2,0-0.3,0c-34,0-61.6-27.6-61.6-61.6c0-9.8,2.3-19,6.3-27.2c-1.2-1.4-2.4-2.6-3.4-3.6
			c-1.5,3.8-18.2,47.4-29.4,55.2c-12.4,3.5-22.1,4.3-22.9,6.6c-0.8,2.3-25.2,43-25.2,43s8.1-50.4,19.4-66.3
			c12.8-12.4,14.7-6.6,16.7-12.4c1.9-5.8,12-26.3,14-34.5c0.5-0.3,1-0.6,1.5-0.8c-1.6-1.9-4.1-5-7.4-8.9c-0.1,0-0.2,0-0.3,0
			C165.3,352.5,147,343.6,134.4,329.5z"/>
		<path class="st45" d="M7.2,497c0,0,13.2,24.4,13.6,38.8c10.1-4.7,29.8-41.5,34.5-55c4.7-13.6,15.1-32.9,20.5-52.7
			c5.4-19.8,26.4-39.5,32.2-47.3c5.8-7.8,11.6-19.4,20.2-31.8c4.2-6,5.7-13,6.3-19.4c-4.6-5.2-8.5-11.1-11.4-17.5h-22
			c-10.4,12.3-21.5,25.9-28.7,35.4c-10.7,16-38.7,71.6-38.7,71.6s-11,5.1-21.1,13.7C5.3,464,1.4,490.2,0.5,512.2
			C4.5,504.2,7.2,497,7.2,497z"/>
		<path class="st45" d="M123,312c-2.7-5.9-4.6-12.3-5.5-19c-4.7,5.1-10.5,11.8-16.6,19H123z"/>
		<path class="st45" d="M219.1,370.6c0.1-0.2,0.1-0.3,0.1-0.3s-0.7-0.6-1.8-1.4C217.9,369.4,218.5,370,219.1,370.6z"/>
		<path class="st45" d="M177.7,396.7c-1.9,5.8-3.9,0-16.7,12.4c-11.2,15.9-19.4,66.3-19.4,66.3s24.4-40.7,25.2-43
			c0.8-2.3,10.5-3.1,22.9-6.6c11.1-7.8,27.9-51.3,29.4-55.2c-0.6-0.6-1.2-1.2-1.7-1.7c-0.1-0.1-0.2-0.2-0.3-0.3
			c-2-2-3.4-3.2-4.1-3.6c-1.1-0.7-2.4-1.1-4-1.4c-5.7-1.1-13.4-0.2-14-0.1c0,0,0,0,0,0s-0.6-0.8-1.7-2.1c-0.5,0.2-1,0.5-1.5,0.8
			C189.8,370.3,179.7,390.8,177.7,396.7z"/>
		<path class="st46" d="M705.4,421.9c-1.4-1.9-3.2-11.3-3.2-11.3s-1.8,9.5-3.2,11.3c-1.4,1.9-9.9,3.5-9.9,3.5s8.6,1.6,9.9,3.5
			c1.4,1.9,3.2,11.3,3.2,11.3s1.8-9.5,3.2-11.3c1.4-1.9,9.9-3.5,9.9-3.5S706.7,423.8,705.4,421.9z"/>
		<path class="st46" d="M644,321.5c-1.4-1.9-3.2-11.3-3.2-11.3s-1.8,9.5-3.2,11.3c-1.4,1.9-9.9,3.5-9.9,3.5s8.6,1.6,9.9,3.5
			c1.4,1.9,3.2,11.3,3.2,11.3s1.8-9.5,3.2-11.3c1.4-1.9,9.9-3.5,9.9-3.5S645.4,323.3,644,321.5z"/>
		<path class="st46" d="M601.8,497.1c-1.4-1.9-3.2-11.3-3.2-11.3s-1.8,9.5-3.2,11.3c-1.4,1.9-9.9,3.5-9.9,3.5s8.6,1.6,9.9,3.5
			c1.4,1.9,3.2,11.3,3.2,11.3s1.8-9.5,3.2-11.3c1.4-1.9,9.9-3.5,9.9-3.5S603.2,498.9,601.8,497.1z"/>
		<path class="st46" d="M628.4,212.5c1.4,1.9,3.2,11.3,3.2,11.3s1.8-9.5,3.2-11.3c1.4-1.9,9.9-3.5,9.9-3.5s-8.6-1.6-9.9-3.5
			c-1.4-1.9-3.2-11.3-3.2-11.3s-1.8,9.5-3.2,11.3c-1.4,1.9-9.9,3.5-9.9,3.5S627.1,210.6,628.4,212.5z"/>
		<path class="st46" d="M519.3,220.3c-1.4-1.9-3.2-11.3-3.2-11.3s-1.8,9.5-3.2,11.3c-1.4,1.9-9.9,3.5-9.9,3.5s8.6,1.6,9.9,3.5
			c1.4,1.9,3.2,11.3,3.2,11.3s1.8-9.5,3.2-11.3c1.4-1.9,9.9-3.5,9.9-3.5S520.7,222.2,519.3,220.3z"/>
		<path class="st46" d="M432.1,317.2c-1.4-1.9-3.2-11.3-3.2-11.3s-1.8,9.5-3.2,11.3c-1.4,1.9-9.9,3.5-9.9,3.5s8.6,1.6,9.9,3.5
			c1.4,1.9,3.2,11.3,3.2,11.3s1.8-9.5,3.2-11.3s9.9-3.5,9.9-3.5S433.5,319,432.1,317.2z"/>
		<path class="st46" d="M399.1,461.9c-1.4-1.9-3.2-11.3-3.2-11.3s-1.8,9.5-3.2,11.3c-1.4,1.9-9.9,3.5-9.9,3.5s8.6,1.6,9.9,3.5
			c1.4,1.9,3.2,11.3,3.2,11.3s1.8-9.5,3.2-11.3c1.4-1.9,9.9-3.5,9.9-3.5S400.4,463.8,399.1,461.9z"/>
	</g>
</g>
</svg>
